<?xml version="1.0" standalone="no"?>
<!DOCTYPE svg PUBLIC "-//W3C//DTD SVG 1.1//EN" "http://www.w3.org/Graphics/SVG/1.1/DTD/svg11.dtd" >
<svg xmlns="http://www.w3.org/2000/svg">
<metadata>Generated by IcoMoon</metadata>
<defs>
<font id="sequoia-icons" horiz-adv-x="1024">
<font-face units-per-em="1024" ascent="960" descent="-64" />
<missing-glyph horiz-adv-x="1024" />
<glyph unicode="&#x20;" horiz-adv-x="512" d="" />
<glyph unicode="&#xe900;" glyph-name="number-list" d="M885.843 679.617h-487.619c-10.777 0-21.113 4.281-28.733 11.902s-11.902 17.956-11.902 28.733c0 10.777 4.281 21.113 11.902 28.733s17.956 11.902 28.733 11.902h487.619c10.776 0 21.114-4.281 28.735-11.902 7.617-7.621 11.898-17.956 11.898-28.733s-4.281-21.112-11.898-28.733c-7.621-7.621-17.959-11.902-28.735-11.902zM885.843 415.49h-487.619c-10.777 0-21.113 4.281-28.733 11.903s-11.902 17.959-11.902 28.735c0 10.776 4.281 21.111 11.902 28.731s17.956 11.902 28.733 11.902h487.619c10.776 0 21.114-4.281 28.735-11.902 7.617-7.621 11.898-17.955 11.898-28.731s-4.281-21.114-11.898-28.735c-7.621-7.621-17.959-11.903-28.735-11.903zM885.843 151.362h-487.619c-10.777 0-21.113 4.281-28.733 11.903-7.621 7.617-11.902 17.954-11.902 28.731s4.281 21.114 11.902 28.735c7.621 7.621 17.956 11.903 28.733 11.903h487.619c10.776 0 21.114-4.281 28.735-11.903 7.617-7.621 11.898-17.959 11.898-28.735s-4.281-21.114-11.898-28.731c-7.621-7.621-17.959-11.903-28.735-11.903zM167.339 659.301h68.345v203.175h-53.888c-1.971-40.285-34.83-53.596-68.017-52.895v-50.443h53.56v-99.836zM168.32 491.161c-0.539 24.531 6.733 41.27 28.279 41.27 12.658 0 22.623-6.349 22.623-24.531 0-14.719-15.621-22.8-25.317-29.149-23.97-15.586-50.903-30.878-66.523-54.254-9.157-13.566-14.543-30.306-13.466-49.64h162.403v49.059h-84.838v0.288c35.282 23.089 82.144 39.253 82.144 90.622 0 42.713-30.972 63.204-76.488 63.204-50.364 0-82.413-31.746-79.451-86.869h50.633zM170.214 225.1c-0.54 16.55 11.34 24.825 25.919 24.825 11.069 0 24.569-4.852 24.569-17.408 0-15.409-14.309-17.979-25.649-17.979-7.29 0-11.61 0.858-15.659 1.141v-38.805c4.050 0.571 7.83 1.424 15.659 1.424 12.42 0 25.109-3.14 25.109-20.543 0-16.267-9.72-22.26-25.109-22.26-9.45 0-17.279 2.282-22.409 8.845-5.13 5.14-7.56 13.127-7.29 23.684h-51.298c-1.35-14.838-1.080-77.614 83.426-77.614 61.558 0 78.837 38.239 78.837 62.493 0 44.232-30.779 44.232-30.779 46.514v0.571c0 0.853 24.839 0.853 24.839 42.516 0 16.837-18.089 51.083-72.627 51.083-21.059 0-40.498-5.422-54.808-16.555-14.309-11.415-23.219-28.535-23.489-51.931h50.758z" />
<glyph unicode="&#xe901;" glyph-name="gift" d="M502.579 812.879c4.369 10.689 8.719 20.6 13.922 30.115 17.33 31.777 40.077 58.624 71.451 77.509 19.924 12.006 41.457 19.337 64.673 22.009 21.972 2.528 43.52 1.156 64.293-6.59 39.024-14.57 64.093-42.356 76.347-81.806 4.569-14.697 5.91-29.827 5.237-45.119-1.068-24.085-5.525-47.358-16.945-68.915-0.254-0.487-0.488-0.993-0.746-1.462-3.023-5.543-3.023-5.543 3.462-5.543 18.725 0 84.578 0 103.283 0 41.706-0.018 71.056-29.14 78.341-70.161 0.814-4.532 1.248-9.099 1.248-13.704-0.015-28.292 0.020-56.601-0.015-84.894-0.039-40.713-24.415-75.812-64.746-82.69-4.008-0.686-8.051-1.21-12.108-1.228-1.687-0.018-2.467-0.524-2.287-2.275 0.093-0.867 0.020-1.752 0.020-2.636 0-96.518 0-285.12 0-381.639 0-39.273-26.409-72.87-64.653-82.276-6.31-1.556-12.727-2.384-19.251-2.384-169.584 0-433.424-0.020-602.991 0.020-40.62 0-75.802 29.842-82.708 69.89-0.852 4.979-1.287 9.962-1.287 15.019 0.018 96.631 0 285.34 0.091 381.985 0 3.34-0.78 4.243-4.26 4.423-39.206 1.968-70.817 30.188-78.485 66.478-1.396 6.572-1.939 13.18-1.921 19.896 0.036 27.209 0.018 54.399 0.018 81.607 0.018 39.233 26.482 72.869 64.727 82.239 6.417 1.571 12.96 2.383 19.576 2.383 19.939-0.018 76.111 0 96.049 0 3.662 0 14.592 0.054 12.797 3.214-10.404 18.308-15.77 38.077-17.981 58.895-2.411 22.731-1.559 45.137 6.725 66.658 16.549 42.97 47.182 70.431 92.786 79.080 46.71 8.847 88.907-3.232 126.464-31.722 21.932-16.646 38.826-37.698 52.329-61.549 5.893-10.417 11.13-21.142 15.372-32.336 0.18-0.668 0.527-1.228 1.175-2.492zM460.239 332.732c0 48.045-0.018 96.071 0.055 144.113 0 2.6-0.472 3.557-3.371 3.557-68.262-0.090-183.651-0.090-251.913 0-2.864 0-3.389-0.921-3.389-3.539 0.073-95.96 0.073-284-0.018-379.963 0-3.033 0.943-3.555 3.716-3.555 68.044 0.073 183.216 0.088 251.26-0.020 3.19 0 3.734 1.029 3.716 3.881-0.073 47.831-0.055 187.719-0.055 235.525zM544.831 333.093c0-48.045 0.020-188.148-0.054-236.193 0-2.58 0.453-3.574 3.355-3.574 68.262 0.093 183.647 0.093 251.909 0 2.848 0 3.408 0.902 3.394 3.54-0.073 95.959-0.073 283.999 0.015 379.962 0 3.015-0.907 3.575-3.716 3.557-68.042-0.072-183.213-0.090-251.26 0.018-3.17 0-3.73-0.993-3.73-3.882 0.107-47.791 0.088-95.616 0.088-143.427zM312.405 648.834c-48.106 0-143.357-0.018-191.463 0.055-2.828 0-3.952-0.47-3.933-3.683 0.145-25.656 0.127-51.312 0.018-76.985-0.018-2.78 18.669-3.701 21.697-3.701 96.338 0.090 221.66 0.090 317.999 0 3.027 0 3.589 0.921 3.571 3.701-0.109 25.439-0.055 50.878-0.055 76.317 0 4.279 0 4.297-4.169 4.297-47.889 0-95.777 0-143.665 0zM692.829 564.591c48.108 0 143.36 0.018 191.464-0.054 2.721 0 3.789 0.415 3.769 3.503-0.146 25.764-0.107 51.546-0.020 77.31 0.020 2.636-0.522 3.539-3.389 3.539-96.446-0.073-240.001-0.073-336.447 0-2.828 0-3.428-0.867-3.408-3.521 0.088-25.547 0.054-51.095 0.054-76.66 0-4.135 0-4.135 4.33-4.135 47.855 0.018 95.759 0.018 143.648 0.018zM668.267 859.461c-10.928-0.018-21.367-2.311-31.286-6.861-21.914-10.056-36.991-27.118-48.43-47.682-11.581-20.817-18.198-43.295-22.060-66.694-0.58-3.485 0.166-4.062 3.389-3.882 12.073 0.686 24.088 1.788 36.074 3.304 15.696 2.004 31.212 4.857 46.309 9.731 16.404 5.308 31.759 12.458 43.374 25.692 13.341 15.184 17.71 33.311 14.448 52.666-3.628 21.558-19.705 33.708-41.818 33.726zM339.068 859.425c-25.848 0.036-40.874-10.706-46.33-29.646-2.157-7.493-1.958-15.112-1.069-22.803 1.595-13.974 6.96-26.161 16.82-36.272 11.691-11.988 26.464-18.723 42.106-23.615 26.482-8.305 53.87-11.14 81.439-12.693 4.078-0.235 4.224 0.108 3.499 4.243-1.922 10.995-4.296 21.882-7.685 32.535-7.903 24.789-19.413 47.466-38.844 65.43-15.479 14.281-33.623 22.46-49.937 22.821z" />
<glyph unicode="&#xe902;" glyph-name="icon_hamburger" d="M145.068 789.333h699.733c23.564 0 42.667-19.103 42.667-42.667s-19.103-42.667-42.667-42.667h-699.733c-23.564 0-42.667 19.103-42.667 42.667s19.103 42.667 42.667 42.667zM145.068 584.531h699.733c23.564 0 42.667-19.103 42.667-42.667s-19.103-42.667-42.667-42.667h-699.733c-23.564 0-42.667 19.103-42.667 42.667s19.103 42.667 42.667 42.667zM145.068 379.733h699.733c23.564 0 42.667-19.103 42.667-42.667s-19.103-42.667-42.667-42.667h-699.733c-23.564 0-42.667 19.103-42.667 42.667s19.103 42.667 42.667 42.667zM145.068 174.933h699.733c23.564 0 42.667-19.103 42.667-42.667s-19.103-42.667-42.667-42.667h-699.733c-23.564 0-42.667 19.103-42.667 42.667s19.103 42.667 42.667 42.667z" />
<glyph unicode="&#xe903;" glyph-name="h1" d="M85.333 810.667v-316.16h408.747v316.16h85.333v-725.333h-85.333v324.693h-408.747v-324.693h-85.333v725.333zM938.667 85.333v516.267h-190.293v68.693c25.326 0.011 50.137 2.183 74.267 6.342l-2.587-0.369c23.594 3.488 44.864 10.67 64.202 20.995l-1.056-0.515c19.125 10.895 35.067 25.204 47.491 42.241l0.296 0.426c13.256 18.95 22.6 41.606 26.342 66.104l0.111 0.882h66.56v-721.067z" />
<glyph unicode="&#xe904;" glyph-name="h2" d="M113.493 572.587h85.333v-200.96h221.867v200.96h85.333v-487.253h-85.333v200.96h-221.867v-200.96h-85.333zM909.653 85.333h-326.4c-0.005 0.496-0.007 1.082-0.007 1.668 0 37.717 10.639 72.949 29.080 102.859l-0.486-0.847c20.306 31.010 45.931 56.771 75.823 76.617l0.977 0.61c15.36 11.52 31.573 22.613 48.213 33.28 17.567 11.095 32.747 22.34 47.046 34.584l-0.539-0.451c13.358 11.628 24.917 24.814 34.541 39.389l0.445 0.718c8.745 14.096 13.97 31.173 14.080 49.463v0.030c-0.006 9.829-1.094 19.4-3.15 28.606l0.164-0.873c-2.263 10.39-6.411 19.549-12.1 27.534l0.154-0.227c-6.424 8.83-14.73 15.907-24.36 20.731l-0.387 0.175c-10.664 5.52-23.278 8.757-36.649 8.757-2.118 0-4.217-0.081-6.294-0.241l0.276 0.017c-0.816 0.032-1.773 0.050-2.735 0.050-13.066 0-25.353-3.337-36.055-9.206l0.39 0.196c-10.222-6.351-18.553-14.819-24.562-24.84l-0.185-0.333c-6.084-10.962-10.814-23.676-13.511-37.125l-0.142-0.848c-2.943-14.083-4.792-30.402-5.116-47.095l-0.004-0.265h-75.947c-0.013 0.926-0.021 2.020-0.021 3.115 0 25.086 3.908 49.26 11.148 71.946l-0.461-1.674c6.691 22.569 17.534 42.107 31.75 58.664l-0.177-0.211c14.014 16.283 31.223 29.395 50.702 38.441l0.924 0.385c19.915 8.652 43.112 13.686 67.484 13.686 1.175 0 2.348-0.012 3.517-0.035l-0.175 0.003c1.465 0.045 3.188 0.071 4.917 0.071 24.608 0 47.999-5.208 69.132-14.582l-1.088 0.431c18.683-8.982 34.448-21.199 47.199-36.074l0.161-0.192c11.193-13.327 19.955-29.12 25.343-46.402l0.257-0.958c4.717-14.642 7.513-31.498 7.679-48.982l0.001-0.085c0.008-0.553 0.012-1.206 0.012-1.86 0-17.874-3.291-34.98-9.3-50.744l0.327 0.978c-6.398-16.299-14.442-30.38-24.197-43.079l0.304 0.412c-10.255-13.371-21.461-25.119-33.802-35.567l-0.331-0.273c-11.802-10.293-24.736-20.381-38.207-29.751l-1.473-0.969c-13.653-9.813-27.307-18.773-42.667-27.307s-26.453-17.493-37.973-26.027c-11.264-8.245-21.173-17.070-30.175-26.751l-0.119-0.129c-7.827-8.272-13.949-18.244-17.75-29.297l-0.17-0.57h232.96z" />
<glyph unicode="&#xe905;" glyph-name="acupuncture" d="M843.947 241.92l85.333 320.853c53.751 7.872 94.557 53.661 94.557 108.98 0 50.879-34.518 93.696-81.414 106.31l-0.77 0.176c-8.567 2.466-18.407 3.884-28.578 3.884-20.153 0-39.006-5.567-55.105-15.247l0.484 0.27c-33.304-19.347-55.34-54.853-55.34-95.505 0-34.848 16.193-65.915 41.465-86.085l0.221-0.171-81.067-305.493c-61.46 25.331-132.647 42.132-207.118 46.835l-1.949 0.098v319.147c40.185 17.138 67.84 56.308 67.84 101.938 0 61.031-49.476 110.507-110.507 110.507s-110.507-49.476-110.507-110.507c0-45.63 27.655-84.8 67.119-101.664l0.721-0.274v-319.147c-76.406-4.818-147.592-21.462-213.649-48.142l4.582 1.635-81.493 305.067c25.14 20.343 41.081 51.196 41.081 85.772 0 60.796-49.284 110.080-110.080 110.080-40.188 0-75.345-21.535-94.563-53.696l-0.278-0.503c-9.602-15.852-15.284-35.007-15.284-55.489 0-10.63 1.531-20.903 4.383-30.61l-0.193 0.766c12.271-41.467 47.046-72.386 89.84-78.857l0.613-0.076 85.333-320.427c-63.668-36.18-118.212-79.578-165.154-130.133l-0.392-0.427c-7.163-7.614-11.564-17.897-11.564-29.207 0-0.682 0.016-1.36 0.048-2.035l-0.004 0.095c0.29-11.983 5.476-22.699 13.627-30.269l0.027-0.025c7.696-7.574 18.262-12.25 29.921-12.25 12.693 0 24.092 5.543 31.907 14.34l0.038 0.044c36.477 38.989 77.681 72.865 122.877 100.918l2.563 1.482 19.627-72.533c4.612-18.96 21.445-32.816 41.514-32.816 4.211 0 8.279 0.61 12.121 1.746l-0.302-0.077c11.44 3.062 20.78 10.454 26.343 20.268l0.11 0.212c4.087 6.428 6.513 14.26 6.513 22.658 0 4.397-0.665 8.639-1.901 12.631l0.081-0.302-24.32 90.453c54.255 22.995 117.138 38.266 183.012 42.576l1.734 0.091v-90.453c0-23.564 19.103-42.667 42.667-42.667s42.667 19.103 42.667 42.667v0 90.027c67.789-4.575 130.796-19.83 189.099-44.116l-3.926 1.45-21.76-90.027c-1.152-3.685-1.815-7.922-1.815-12.314 0-19.968 13.717-36.732 32.241-41.384l0.294-0.063c3.391-0.911 7.284-1.434 11.299-1.434 8.070 0 15.647 2.114 22.207 5.818l-0.226-0.117c9.937 5.843 17.198 15.333 19.992 26.587l0.062 0.293 19.627 72.107c47.622-29.358 88.692-63.099 124.698-101.632l0.316-0.341c7.534-8.336 18.253-13.672 30.222-14.078l0.071-0.002c0.076 0 0.166-0.001 0.256-0.001 11.506 0 21.949 4.555 29.623 11.96l-0.013-0.012c8.709 7.844 14.161 19.159 14.161 31.747 0 11.547-4.587 22.022-12.038 29.704l0.010-0.011c-46.953 50.018-100.911 92.696-160.48 126.663l-3.36 1.764zM891.733 677.547c3.845 7.314 11.391 12.216 20.081 12.216 12.489 0 22.613-10.124 22.613-22.613 0-0.395-0.010-0.787-0.030-1.177l0.002 0.055c-1.357-6.15-5.277-11.189-10.555-14.025l-0.112-0.055c-2.517-1.102-5.45-1.743-8.533-1.743s-6.016 0.641-8.674 1.797l0.14-0.054c-9.004 2.962-15.39 11.295-15.39 21.12 0 1.586 0.166 3.133 0.483 4.625l-0.026-0.145zM534.613 746.667c-0.242-12.538-10.463-22.609-23.036-22.609-12.725 0-23.040 10.315-23.040 23.040s10.315 23.040 23.040 23.040c0.149 0 0.297-0.001 0.445-0.004h-0.022c12.542-0.237 22.617-10.46 22.617-23.036 0-0.151-0.001-0.302-0.004-0.453v0.023zM116.053 649.813c-3.019-1.596-6.599-2.532-10.397-2.532-12.489 0-22.613 10.124-22.613 22.613 0 12.094 9.494 21.971 21.436 22.583l0.055 0.002h5.973c4.084-0.138 7.884-1.228 11.225-3.052l-0.132 0.066c5.283-3.016 9.151-7.999 10.634-13.927l0.032-0.153c0.545-1.813 0.859-3.897 0.859-6.054 0-4.060-1.112-7.86-3.048-11.113l0.055 0.1c-3.37-4.439-8.294-7.547-13.949-8.515l-0.131-0.019z" />
<glyph unicode="&#xe906;" glyph-name="money-add" d="M672 529.067c-20.467-0.069-40.321-2.554-59.334-7.183l1.734 0.357v177.493c-4.163 54.268-37.615 99.833-84.427 121.229l-0.906 0.371c-58.286 31.026-127.457 49.245-200.883 49.245-4.378 0-8.741-0.065-13.088-0.193l0.637 0.015c-3.71 0.114-8.073 0.178-12.451 0.178-73.426 0-142.597-18.22-203.238-50.385l2.355 1.139c-47.718-21.767-81.17-67.332-85.303-121.106l-0.030-0.494v-554.667c-0.005-0.353-0.008-0.77-0.008-1.188 0-31.422 16.984-58.878 42.272-73.688l0.403-0.218 11.093-5.547c8.96-4.693 20.053-8.533 30.293-12.8 57.779-20.483 124.417-32.319 193.819-32.319 6.862 0 13.697 0.116 20.504 0.345l-0.989-0.026c5.817-0.203 12.652-0.319 19.514-0.319 69.402 0 136.040 11.836 198.005 33.6l-4.186-1.281 7.253 2.987c37.993-23.559 84.081-37.522 133.43-37.522 141.385 0 256 114.615 256 256 0 140.144-112.611 253.985-252.282 255.974l-0.188 0.002zM315.733 785.067c128 0 213.333-50.773 213.333-85.333s-85.333-81.067-213.333-81.067-213.333 46.080-213.333 81.067 83.2 85.333 213.333 85.333zM102.4 565.333c61.185-20.328 131.624-32.054 204.803-32.054 2.999 0 5.994 0.020 8.984 0.059l-0.453-0.005c2.537-0.035 5.531-0.054 8.531-0.054 73.178 0 143.617 11.727 209.541 33.403l-4.738-1.349v-79.787c-55.747-24.128-120.665-38.163-188.861-38.163-8.608 0-17.164 0.224-25.662 0.665l1.189-0.049c-7.309-0.392-15.865-0.616-24.473-0.616-68.196 0-133.113 14.034-192.022 39.373l3.162-1.21zM102.4 394.667c60.973-20.601 131.196-32.49 204.196-32.49 3.213 0 6.42 0.023 9.622 0.069l-0.486-0.005c0.26 0 0.569-0.001 0.878-0.001 42.168 0 83.538 3.414 123.85 9.98l-4.408-0.592c-11.182-25.988-18.268-56.149-19.609-87.798l-0.018-0.522c-27.861-3.83-60.058-6.017-92.765-6.017-2.788 0-5.571 0.016-8.351 0.048l0.423-0.004c-7.314-0.397-15.875-0.623-24.489-0.623-68.231 0-133.145 14.198-191.95 39.802l3.106-1.205zM315.733 106.667c-8.378-0.602-18.153-0.945-28.008-0.945-67.539 0-131.315 16.112-187.694 44.701l2.369-1.089v75.093c60.973-20.601 131.196-32.49 204.196-32.49 3.213 0 6.42 0.023 9.622 0.069l-0.486-0.005c0.125 0 0.272 0 0.419 0 38.996 0 77.303 2.947 114.711 8.631l-4.197-0.524c8.713-29.147 21.534-54.544 38.037-77.075l-0.49 0.702c-41.838-10.888-89.869-17.139-139.36-17.139-3.207 0-6.407 0.026-9.602 0.079l0.481-0.006zM672 102.4c-59.609 0.058-112.057 30.666-142.535 77.009l-0.398 0.644c-7.129 11.158-13.337 23.994-17.971 37.559l-0.376 1.267c-5.711 16.118-9.128 34.712-9.385 54.067l-0.001 0.119c0.139 11.103 1.22 21.857 3.166 32.307l-0.18-1.16c4.506 23.247 13.129 43.881 25.143 62.078l-0.396-0.638c31.251 46.661 83.433 77.192 142.8 78.078l0.134 0.002c94.257 0 170.667-76.41 170.667-170.667s-76.41-170.667-170.667-170.667v0zM964.267 768h-68.267v68.267c0 23.564-19.103 42.667-42.667 42.667s-42.667-19.103-42.667-42.667v0-68.267h-68.267c-23.564 0-42.667-19.103-42.667-42.667s19.103-42.667 42.667-42.667v0h68.267v-68.267c0-23.564 19.103-42.667 42.667-42.667s42.667 19.103 42.667 42.667v0 68.267h68.267c23.564 0 42.667 19.103 42.667 42.667s-19.103 42.667-42.667 42.667v0z" />
<glyph unicode="&#xe907;" glyph-name="add-column" d="M819.2 410.88v-341.333c0-23.564-19.103-42.667-42.667-42.667s-42.667 19.103-42.667 42.667v0 341.333c0 23.564 19.103 42.667 42.667 42.667s42.667-19.103 42.667-42.667v0zM887.467 759.040h-68.267v68.267c0 23.564-19.103 42.667-42.667 42.667s-42.667-19.103-42.667-42.667v0-68.267h-68.267c-23.564 0-42.667-19.103-42.667-42.667s19.103-42.667 42.667-42.667v0h68.267v-68.267c0-23.564 19.103-42.667 42.667-42.667s42.667 19.103 42.667 42.667v0 68.267h68.267c23.564 0 42.667 19.103 42.667 42.667s-19.103 42.667-42.667 42.667v0zM499.2 794.88v-725.333c0-23.564-19.103-42.667-42.667-42.667s-42.667 19.103-42.667 42.667v0 725.333c0 23.564 19.103 42.667 42.667 42.667s42.667-19.103 42.667-42.667v0zM179.2 794.88v-725.333c0-23.564-19.103-42.667-42.667-42.667s-42.667 19.103-42.667 42.667v0 725.333c0 23.564 19.103 42.667 42.667 42.667s42.667-19.103 42.667-42.667v0z" />
<glyph unicode="&#xe908;" glyph-name="id-card" d="M511.642 832c113.11 0 226.221-0.041 339.334 0 37.181 0 69.075-12.894 94.787-39.662 21.162-22.014 32.73-48.598 34.957-79.222 0.816-11.201 0.57-22.381 0.57-33.562 0.061-147.692 0.019-295.382 0.042-443.075 0-64.797-45.322-116.72-106.112-127.635-7.837-1.408-15.776-2.122-23.754-2.122-226.57-0.022-453.12-0.144-679.691 0.061-62.157 0.061-113.622 41.558-126.641 102.419-1.694 7.955-2.469 16.035-2.469 24.218 0.061 157.546 0 315.069 0.061 472.616 0.020 60.125 45.649 113.906 104.806 123.882 8.387 1.428 16.774 2.081 25.283 2.081 112.948-0.020 225.876 0 338.827 0zM512.131 746.474c-113.622 0-227.266-0.204-340.887 0.184-20.365 0.061-43.833-15.342-43.588-43.926 0.245-29.318-0.224-58.636 0.633-87.996 0.857-29.114-0.163-58.307-0.408-87.443-0.796-97.094-0.306-194.208-0.306-291.322 0-24.79 19.019-43.725 43.853-43.725 217.571 0 435.164 0 652.736 0 10.182 0 20.384-0.061 30.566 0 21.795 0.163 40.934 19.382 41.098 41.11 0.592 81.12-0.326 162.221 0.675 243.338 0.938 75.651 0.694 151.344-0.512 227.037-0.365 23.687-20.365 42.967-42.995 42.906-113.622-0.367-227.264-0.163-340.886-0.163h0.022zM443.418 480.611c0.365-66.304-52.794-122.448-120.054-121.926-66.73 0.502-118.501 55.539-118.644 122.49-0.143 66.451 52.67 122.365 119.441 122.24 67.014-0.125 119.542-55.29 119.235-122.784l0.022-0.019zM375.178 480.611c0.080 29.347-22.611 53.302-50.938 52.989-30.813-0.355-51.424-25.754-51.281-52.173 0.163-29.139 22.611-52.886 50.526-52.989 28.694-0.106 51.61 23.014 51.693 52.192v-0.019zM665.619 393.808c-39.549 0-79.098 0.272-118.643-0.125-17.328-0.166-35.101 12.458-34.998 35.283 0.102 21.741 17.101 34.659 35.242 34.701 48.202 0.102 96.422 0.042 144.621 0.042 30.55 0 61.098 0 91.667 0 15.715 0 28.794-9.261 33.712-23.725 7.632-22.429-8.714-46.112-31.936-46.134-39.894-0.042-79.77 0-119.664 0v-0.042zM614.563 533.683c-22.733 0-45.485 0-68.218 0-19.226 0-33.773 13.859-34.406 34.198-0.531 17.514 11.51 32.042 28.813 34.886 2.163 0.355 4.349 0.752 6.531 0.752 44.63 0.042 89.258 0.144 133.888-0.042 13.898-0.064 24.896-6 31.53-19.024 11.795-23.2-4.41-50.707-29.917-50.771-22.733-0.064-45.488 0-68.221 0v0zM614.23 253.984c-22.589 0-45.181 0.23-67.77-0.083-16.019-0.208-34.202 11.411-34.589 35.283-0.307 18.854 15.651 34.595 34.406 34.637 45.178 0.102 90.358 0.102 135.539 0 18.122-0.042 32.752-13.357 34.63-31.040 1.878-17.894-8.918-33.446-26.346-38.106-2.691-0.71-5.366-0.691-8.080-0.71-22.589 0-45.181 0-67.77 0l-0.022 0.019z" />
<glyph unicode="&#xe909;" glyph-name="add-image" d="M810.667 874.667h-597.333c-70.692 0-128-57.308-128-128v0-597.333c0-70.692 57.308-128 128-128v0h597.333c70.692 0 128 57.308 128 128v0 597.333c0 70.692-57.308 128-128 128v0zM170.667 746.667c-0.056 0.792-0.087 1.716-0.087 2.647 0 22.15 17.956 40.107 40.107 40.107 0.932 0 1.856-0.032 2.771-0.094l-0.124 0.007h597.333c0.792 0.056 1.716 0.087 2.647 0.087 22.15 0 40.107-17.956 40.107-40.107 0-0.932-0.032-1.856-0.094-2.771l0.007 0.124v-324.267l-140.8 140.8c-7.69 7.542-18.235 12.197-29.867 12.197s-22.177-4.655-29.874-12.203l-452.26-452.26c-16.751 5.357-28.853 20.341-29.862 38.288l-0.005 0.112zM682.667 473.6l170.667-170.667v-153.6l-0.007 0.124c0.062-0.916 0.094-1.84 0.094-2.771 0-22.15-17.956-40.107-40.107-40.107-0.932 0-1.856 0.032-2.647 0.087h-494.933zM384 682.667c-58.91 0-106.667-47.756-106.667-106.667s47.756-106.667 106.667-106.667c58.91 0 106.667 47.756 106.667 106.667v0c0 58.91-47.756 106.667-106.667 106.667v0zM384 554.667c-11.058 0.023-20.012 8.993-20.012 20.053 0 11.075 8.978 20.053 20.053 20.053 10.625 0 19.32-8.263 20.009-18.713l0.003-0.060c0-11.075-8.978-20.053-20.053-20.053v0z" />
<glyph unicode="&#xe90a;" glyph-name="credit-card" d="M405.333 192h-128c-35.346 0-64 28.654-64 64v0 128c0 35.346 28.654 64 64 64v0h128c35.346 0 64-28.654 64-64v0-128c0-35.346-28.654-64-64-64v0zM298.667 277.333h85.333v85.333h-85.333zM768 437.333h-170.667c-23.564 0-42.667-19.103-42.667-42.667s19.103-42.667 42.667-42.667v0h170.667c23.564 0 42.667 19.103 42.667 42.667s-19.103 42.667-42.667 42.667v0zM768 288h-170.667c-23.564 0-42.667-19.103-42.667-42.667s19.103-42.667 42.667-42.667v0h170.667c23.564 0 42.667 19.103 42.667 42.667s-19.103 42.667-42.667 42.667v0zM853.333 704h-213.333v42.667c0 70.692-57.308 128-128 128s-128-57.308-128-128v0-42.667h-213.333c-70.692 0-128-57.308-128-128v0-426.667c0-70.692 57.308-128 128-128v0h682.667c70.692 0 128 57.308 128 128v0 426.667c0 70.692-57.308 128-128 128v0zM469.333 746.667c0 23.564 19.103 42.667 42.667 42.667s42.667-19.103 42.667-42.667v0-128h-85.333zM896 149.333c0-23.564-19.103-42.667-42.667-42.667v0h-682.667c-23.564 0-42.667 19.103-42.667 42.667v0 426.667c0 23.564 19.103 42.667 42.667 42.667v0h213.333v-42.667c0-23.564 19.103-42.667 42.667-42.667v0h170.667c23.564 0 42.667 19.103 42.667 42.667v0 42.667h213.333c23.564 0 42.667-19.103 42.667-42.667v0z" />
<glyph unicode="&#xe90b;" glyph-name="table" d="M810.667 874.667h-597.333c-70.692 0-128-57.308-128-128v0-597.333c0-70.692 57.308-128 128-128v0h597.333c70.692 0 128 57.308 128 128v0 597.333c0 70.692-57.308 128-128 128v0zM853.333 746.667v-128h-170.667v170.667h128c23.564 0 42.667-19.103 42.667-42.667v0zM426.667 362.667v170.667h170.667v-170.667zM597.333 277.333v-170.667h-170.667v170.667zM341.333 362.667h-170.667v170.667h170.667zM426.667 618.667v170.667h170.667v-170.667zM682.667 533.333h170.667v-170.667h-170.667zM213.333 789.333h128v-170.667h-170.667v128c0 23.564 19.103 42.667 42.667 42.667v0zM170.667 149.333v128h170.667v-170.667h-128c-23.564 0-42.667 19.103-42.667 42.667v0zM810.667 106.667h-128v170.667h170.667v-128c0-23.564-19.103-42.667-42.667-42.667v0z" />
<glyph unicode="&#xe90c;" glyph-name="add-location" d="M974.933 806.4h-68.267v68.267c0 23.564-19.103 42.667-42.667 42.667s-42.667-19.103-42.667-42.667v0-68.267h-68.267c-23.564 0-42.667-19.103-42.667-42.667s19.103-42.667 42.667-42.667h68.267v-68.267c0-23.564 19.103-42.667 42.667-42.667s42.667 19.103 42.667 42.667v0 68.267h68.267c23.564 0 42.667 19.103 42.667 42.667s-19.103 42.667-42.667 42.667v0zM347.733-21.333c-11.868 0.051-22.584 4.939-30.287 12.793l-0.007 0.007c-12.8 12.8-311.040 320-311.040 568.747-0.049 2.189-0.077 4.769-0.077 7.356 0 190.252 151.857 345.037 340.972 349.756l0.438 0.009c189.554-4.727 341.411-159.512 341.411-349.764 0-2.586-0.028-5.166-0.084-7.739l0.007 0.383c0-248.747-298.667-554.667-311.040-568.747-7.709-7.861-18.426-12.749-30.284-12.8h-0.010zM347.733 832c-142.425-4.683-256.103-121.266-256.103-264.399 0-2.598 0.037-5.187 0.112-7.767l-0.009 0.379c0-170.667 182.187-392.96 256-476.16 73.813 85.333 256 304.64 256 476.16 0.066 2.201 0.103 4.79 0.103 7.388 0 143.133-113.678 259.716-255.675 264.388l-0.428 0.011zM347.733 426.667c-82.475 0-149.333 66.859-149.333 149.333s66.859 149.333 149.333 149.333c82.475 0 149.333-66.859 149.333-149.333v0c0-82.475-66.859-149.333-149.333-149.333v0zM347.733 640c-35.346 0-64-28.654-64-64s28.654-64 64-64c35.346 0 64 28.654 64 64v0c0 35.346-28.654 64-64 64v0z" />
<glyph unicode="&#xe90d;" glyph-name="flag" d="M791.040 552.96c14.933 23.040 147.627 244.907 147.627 257.707 0 23.564-19.103 42.667-42.667 42.667v0h-661.333v42.667c0 23.564-19.103 42.667-42.667 42.667s-42.667-19.103-42.667-42.667v0-853.333h-21.333c-23.564 0-42.667-19.103-42.667-42.667s19.103-42.667 42.667-42.667v0h128c23.564 0 42.667 19.103 42.667 42.667s-19.103 42.667-42.667 42.667v0h-21.333v213.333h661.333c23.564 0 42.667 19.103 42.667 42.667v0c0 13.227-132.693 229.547-147.627 254.293zM236.373 339.627v428.373h584.533c-11.947-20.48-122.027-201.813-122.027-213.333s111.787-192 121.6-213.333z" />
<glyph unicode="&#xe90e;" glyph-name="add-row" d="M517.547 183.467h-427.947c-23.564 0-42.667 19.103-42.667 42.667s19.103 42.667 42.667 42.667v0h426.667c23.564 0 42.667-19.103 42.667-42.667s-19.103-42.667-42.667-42.667v0zM933.973 268.8h-68.267v68.267c0 23.564-19.103 42.667-42.667 42.667s-42.667-19.103-42.667-42.667v0-68.267h-68.267c-23.564 0-42.667-19.103-42.667-42.667s19.103-42.667 42.667-42.667v0h68.267v-68.267c0-23.564 19.103-42.667 42.667-42.667s42.667 19.103 42.667 42.667v0 68.267h68.267c23.564 0 42.667 19.103 42.667 42.667s-19.103 42.667-42.667 42.667v0zM858.88 460.8h-769.28c-23.564 0-42.667 19.103-42.667 42.667s19.103 42.667 42.667 42.667v0h768c23.564 0 42.667-19.103 42.667-42.667s-19.103-42.667-42.667-42.667v0zM858.88 738.133h-769.28c-23.564 0-42.667 19.103-42.667 42.667s19.103 42.667 42.667 42.667v0h768c23.564 0 42.667-19.103 42.667-42.667s-19.103-42.667-42.667-42.667v0z" />
<glyph unicode="&#xe90f;" glyph-name="alert-circle" d="M512 874.667c235.641 0 426.667-191.025 426.667-426.667s-191.025-426.667-426.667-426.667c-235.641 0-426.667 191.025-426.667 426.667v0c0 235.641 191.025 426.667 426.667 426.667v0zM512 106.667c188.513 0 341.333 152.82 341.333 341.333s-152.82 341.333-341.333 341.333c-188.513 0-341.333-152.82-341.333-341.333v0c0-188.513 152.82-341.333 341.333-341.333v0zM512 646.4c23.564 0 42.667-19.103 42.667-42.667v-170.667c0-23.564-19.103-42.667-42.667-42.667s-42.667 19.103-42.667 42.667v170.667c0 23.564 19.103 42.667 42.667 42.667zM512 332.8v0c0.792 0.056 1.716 0.087 2.647 0.087 22.15 0 40.107-17.956 40.107-40.107 0-0.932-0.032-1.856-0.094-2.771l0.007 0.124c0.056-0.792 0.087-1.716 0.087-2.647 0-22.15-17.956-40.107-40.107-40.107-0.932 0-1.856 0.032-2.771 0.094l0.124-0.007c-0.792-0.056-1.716-0.087-2.647-0.087-22.15 0-40.107 17.956-40.107 40.107 0 0.932 0.032 1.856 0.094 2.771l-0.007-0.124c-0.056 0.792-0.087 1.716-0.087 2.647 0 22.15 17.956 40.107 40.107 40.107 0.932 0 1.856-0.032 2.771-0.094l-0.124 0.007z" />
<glyph unicode="&#xe910;" glyph-name="angle-left" d="M671.573 133.973l-314.027 314.027 314.027 314.027c7.795 7.733 12.621 18.45 12.621 30.293s-4.826 22.56-12.618 30.291l-0.003 0.003c-7.712 7.668-18.343 12.407-30.080 12.407s-22.368-4.74-30.082-12.409l0.002 0.002-312.747-314.453-30.293-29.867c-7.668-7.712-12.407-18.343-12.407-30.080s4.74-22.368 12.409-30.082l30.291-30.291 314.027-314.453c7.712-7.668 18.343-12.407 30.080-12.407s22.368 4.74 30.082 12.409l-0.002-0.002c7.421 7.667 11.994 18.129 11.994 29.659 0 12.164-5.090 23.139-13.257 30.911l-0.018 0.017z" />
<glyph unicode="&#xe911;" glyph-name="angle-down" d="M826.027 607.573l-314.027-314.027-314.027 314.027c-7.733 7.795-18.45 12.621-30.293 12.621s-22.56-4.826-30.291-12.618l-0.003-0.003c-7.668-7.712-12.407-18.343-12.407-30.080s4.74-22.368 12.409-30.082l-0.002 0.002 314.453-312.747 29.867-30.293c7.712-7.668 18.343-12.407 30.080-12.407s22.368 4.74 30.082 12.409l30.291 30.291 314.453 314.027c7.668 7.712 12.407 18.343 12.407 30.080s-4.74 22.368-12.409 30.082l0.002-0.002c-7.667 7.421-18.129 11.994-29.659 11.994-12.164 0-23.139-5.090-30.911-13.257l-0.017-0.018z" />
<glyph unicode="&#xe912;" glyph-name="arrow-left" d="M917.333 490.667h-709.12l261.12 260.267c10.41 7.867 17.067 20.223 17.067 34.133 0 23.564-19.103 42.667-42.667 42.667-13.911 0-26.267-6.657-34.056-16.959l-0.078-0.107-333.227-332.373c-7.795-7.733-12.621-18.45-12.621-30.293s4.826-22.56 12.618-30.291l332.376-332.376c7.877-9.282 19.552-15.134 32.594-15.134 23.564 0 42.667 19.103 42.667 42.667 0 12.829-5.662 24.336-14.624 32.157l-0.051 0.043-261.12 260.267h709.12c23.564 0 42.667 19.103 42.667 42.667v0 0c0 23.564-19.103 42.667-42.667 42.667v0z" />
<glyph unicode="&#xe913;" glyph-name="arrow-right" d="M106.667 405.333h709.12l-261.12-260.267c-10.41-7.867-17.067-20.223-17.067-34.133 0-23.564 19.103-42.667 42.667-42.667 13.911 0 26.267 6.657 34.056 16.959l0.078 0.107 332.373 332.373c7.795 7.733 12.621 18.45 12.621 30.293s-4.826 22.56-12.618 30.291l-0.003 0.003-331.52 332.373c-7.877 9.282-19.552 15.134-32.594 15.134-23.564 0-42.667-19.103-42.667-42.667 0-12.829 5.662-24.336 14.624-32.157l0.051-0.043 260.267-260.267h-708.267c-23.564 0-42.667-19.103-42.667-42.667v0 0c0-23.564 19.103-42.667 42.667-42.667v0z" />
<glyph unicode="&#xe914;" glyph-name="angle-up" d="M197.973 288.427l314.027 314.027 314.027-314.027c7.733-7.795 18.45-12.621 30.293-12.621s22.56 4.826 30.291 12.618l0.003 0.003c7.668 7.712 12.407 18.343 12.407 30.080s-4.74 22.368-12.409 30.082l0.002-0.002-314.453 312.747-29.867 30.293c-7.712 7.668-18.343 12.407-30.080 12.407s-22.368-4.74-30.082-12.409l-30.291-30.291-314.453-312.747c-7.668-7.712-12.407-18.343-12.407-30.080s4.74-22.368 12.409-30.082l-0.002 0.002c7.733-7.795 18.45-12.621 30.293-12.621s22.56 4.826 30.291 12.618l0.003 0.003z" />
<glyph unicode="&#xe915;" glyph-name="user-add" d="M411.733 448c117.821 0 213.333 95.513 213.333 213.333s-95.513 213.333-213.333 213.333c-117.821 0-213.333-95.513-213.333-213.333v0c0-117.821 95.513-213.333 213.333-213.333v0zM411.733 789.333c70.692 0 128-57.308 128-128s-57.308-128-128-128c-70.692 0-128 57.308-128 128v0c0 70.692 57.308 128 128 128v0zM539.733 362.667h-256c-141.385 0-256-114.615-256-256v0-42.667c0-23.564 19.103-42.667 42.667-42.667v0 0c23.564 0 42.667 19.103 42.667 42.667v0 42.667c0 94.257 76.41 170.667 170.667 170.667v0h256c94.257 0 170.667-76.41 170.667-170.667v0-42.667c0-23.564 19.103-42.667 42.667-42.667v0 0c23.564 0 42.667 19.103 42.667 42.667v0 42.667c0 141.385-114.615 256-256 256v0zM953.6 533.333h-68.267v68.267c0 23.564-19.103 42.667-42.667 42.667s-42.667-19.103-42.667-42.667v0-68.267h-68.267c-23.564 0-42.667-19.103-42.667-42.667s19.103-42.667 42.667-42.667v0h68.267v-68.267c0-23.564 19.103-42.667 42.667-42.667s42.667 19.103 42.667 42.667v0 68.267h68.267c23.564 0 42.667 19.103 42.667 42.667s-19.103 42.667-42.667 42.667v0z" />
<glyph unicode="&#xe916;" glyph-name="apps" d="M387.84 486.827h-217.173c-47.128 0-85.333 38.205-85.333 85.333v0 217.173c0 47.128 38.205 85.333 85.333 85.333v0h217.173c47.128 0 85.333-38.205 85.333-85.333v0-216.747c0.001-0.127 0.001-0.277 0.001-0.427 0-47.128-38.205-85.333-85.333-85.333 0 0-0.001 0-0.001 0v0zM170.667 789.333v-216.747h217.173v216.747zM853.333 486.827h-217.173c-47.128 0-85.333 38.205-85.333 85.333v0 217.173c0 47.128 38.205 85.333 85.333 85.333v0h217.173c47.128 0 85.333-38.205 85.333-85.333v0-216.747c0.001-0.127 0.001-0.277 0.001-0.427 0-47.128-38.205-85.333-85.333-85.333 0 0-0.001 0-0.001 0v0zM636.16 789.333v-216.747h217.173v216.747zM387.84 21.333h-217.173c-47.128 0-85.333 38.205-85.333 85.333v0 216.747c0 47.128 38.205 85.333 85.333 85.333v0h217.173c47.128 0 85.333-38.205 85.333-85.333v0-216.747c0-47.128-38.205-85.333-85.333-85.333v0zM170.667 323.413v-216.747h217.173v216.747zM853.333 21.333h-217.173c-47.128 0-85.333 38.205-85.333 85.333v0 216.747c0 47.128 38.205 85.333 85.333 85.333v0h217.173c47.128 0 85.333-38.205 85.333-85.333v0-216.747c0-47.128-38.205-85.333-85.333-85.333v0zM636.587 323.413v-216.747h216.747v216.747z" />
<glyph unicode="&#xe917;" glyph-name="bank" d="M938.667 543.573c23.564 0 42.667 19.103 42.667 42.667v0 112.213c0.001 0.088 0.001 0.193 0.001 0.297 0 16.562-9.437 30.921-23.227 37.991l-0.24 0.112-426.667 175.787c-5.422 3.009-11.891 4.78-18.773 4.78s-13.351-1.771-18.975-4.883l0.202 0.102-426.667-175.787c-14.031-7.182-23.468-21.541-23.468-38.103 0-0.104 0-0.209 0.001-0.313v0.016-112.213c0-23.564 19.103-42.667 42.667-42.667v0h84.48v-308.907h-85.333c-23.564 0-42.667-19.103-42.667-42.667v0-170.667c0-23.564 19.103-42.667 42.667-42.667v0h853.333c23.564 0 42.667 19.103 42.667 42.667v0 170.667c0 23.564-19.103 42.667-42.667 42.667v0h-85.333v308.907zM896 149.333v-85.333h-768v85.333zM256 234.667v308.907h85.333v-308.907zM426.667 234.667v308.907h170.667v-308.907zM682.667 234.667v308.907h85.333v-308.907zM128 629.333v42.667l384 154.453 384-154.453v-42.667z" />
<glyph unicode="&#xe918;" glyph-name="stats-variant" d="M437.333 307.2c0 23.564-19.103 42.667-42.667 42.667v0c-0.792 0.056-1.716 0.087-2.647 0.087-22.15 0-40.107-17.956-40.107-40.107 0-0.932 0.032-1.856 0.094-2.771l-0.007 0.124v-200.533c-0.056-0.792-0.087-1.716-0.087-2.647 0-22.15 17.956-40.107 40.107-40.107 0.932 0 1.856 0.032 2.771 0.094l-0.124-0.007c0.792-0.056 1.716-0.087 2.647-0.087 22.15 0 40.107 17.956 40.107 40.107 0 0.932-0.032 1.856-0.094 2.771l0.007-0.124zM795.733 307.2c0 23.564-19.103 42.667-42.667 42.667v0c-0.792 0.056-1.716 0.087-2.647 0.087-22.15 0-40.107-17.956-40.107-40.107 0-0.932 0.032-1.856 0.094-2.771l-0.007 0.124v-200.533c-0.056-0.792-0.087-1.716-0.087-2.647 0-22.15 17.956-40.107 40.107-40.107 0.932 0 1.856 0.032 2.771 0.094l-0.124-0.007c0.792-0.056 1.716-0.087 2.647-0.087 22.15 0 40.107 17.956 40.107 40.107 0 0.932-0.032 1.856-0.094 2.771l0.007-0.124zM616.533 200.533c0 23.564-19.103 42.667-42.667 42.667v0c-0.792 0.056-1.716 0.087-2.647 0.087-22.15 0-40.107-17.956-40.107-40.107 0-0.932 0.032-1.856 0.094-2.771l-0.007 0.124v-93.867c-0.056-0.792-0.087-1.716-0.087-2.647 0-22.15 17.956-40.107 40.107-40.107 0.932 0 1.856 0.032 2.771 0.094l-0.124-0.007c0.792-0.056 1.716-0.087 2.647-0.087 22.15 0 40.107 17.956 40.107 40.107 0 0.932-0.032 1.856-0.094 2.771l0.007-0.124zM256 145.067c0 23.564-19.103 42.667-42.667 42.667v0c-0.792 0.056-1.716 0.087-2.647 0.087-22.15 0-40.107-17.956-40.107-40.107 0-0.932 0.032-1.856 0.094-2.771l-0.007 0.124v-38.4c-0.056-0.792-0.087-1.716-0.087-2.647 0-22.15 17.956-40.107 40.107-40.107 0.932 0 1.856 0.032 2.771 0.094l-0.124-0.007c0.792-0.056 1.716-0.087 2.647-0.087 22.15 0 40.107 17.956 40.107 40.107 0 0.932-0.032 1.856-0.094 2.771l0.007-0.124zM981.333 789.333c0 23.564-19.103 42.667-42.667 42.667v0h-241.493c-23.564 0-42.667-19.103-42.667-42.667s19.103-42.667 42.667-42.667v0h137.387l-258.56-259.413-149.333 151.040c-7.712 7.668-18.343 12.407-30.080 12.407s-22.368-4.74-30.082-12.409l0.002 0.002-311.040-309.76c-7.668-7.712-12.407-18.343-12.407-30.080s4.74-22.368 12.409-30.082l-0.002 0.002c7.733-7.795 18.45-12.621 30.293-12.621s22.56 4.826 30.291 12.618l0.003 0.003 279.040 279.467 150.613-151.040c7.733-7.795 18.45-12.621 30.293-12.621s22.56 4.826 30.291 12.618l0.003 0.003 289.707 288.853v-137.387c0-0.073-0.001-0.16-0.001-0.247 0-11.721 4.726-22.338 12.377-30.049l-0.003 0.003c7.75-7.902 18.538-12.801 30.471-12.801 0.088 0 0.175 0 0.263 0.001h-0.013c23.564 0 42.667 19.103 42.667 42.667v0z" />
<glyph unicode="&#xe919;" glyph-name="bars" d="M682.667 64v768c0 23.564 19.103 42.667 42.667 42.667s42.667-19.103 42.667-42.667v0-768c0.056-0.792 0.087-1.716 0.087-2.647 0-22.15-17.956-40.107-40.107-40.107-0.932 0-1.856 0.032-2.771 0.094l0.124-0.007c-23.564 0-42.667 19.103-42.667 42.667v0zM469.333 64v512c0 23.564 19.103 42.667 42.667 42.667s42.667-19.103 42.667-42.667v0-512c0.056-0.792 0.087-1.716 0.087-2.647 0-22.15-17.956-40.107-40.107-40.107-0.932 0-1.856 0.032-2.771 0.094l0.124-0.007c-23.564 0-42.667 19.103-42.667 42.667v0zM256 64v341.333c-0.056 0.792-0.087 1.716-0.087 2.647 0 22.15 17.956 40.107 40.107 40.107 0.932 0 1.856-0.032 2.771-0.094l-0.124 0.007c0.792 0.056 1.716 0.087 2.647 0.087 22.15 0 40.107-17.956 40.107-40.107 0-0.932-0.032-1.856-0.094-2.771l0.007 0.124v-341.333c0.056-0.792 0.087-1.716 0.087-2.647 0-22.15-17.956-40.107-40.107-40.107-0.932 0-1.856 0.032-2.771 0.094l0.124-0.007c-23.564 0-42.667 19.103-42.667 42.667v0z" />
<glyph unicode="&#xe91a;" glyph-name="file-billing" d="M853.333 0c-8.699 0.177-16.775 2.693-23.669 6.943l0.203-0.116-61.867 40.533-61.867-40.533c-6.607-4.407-14.73-7.033-23.467-7.033s-16.859 2.626-23.623 7.131l0.156-0.098-61.867 40.533-61.867-40.533c-6.607-4.407-14.73-7.033-23.467-7.033s-16.859 2.626-23.623 7.131l0.156-0.098-61.867 40.533-61.867-40.533c-6.607-4.407-14.73-7.033-23.467-7.033s-16.859 2.626-23.623 7.131l0.156-0.098-61.867 40.533-61.867-40.533c-6.12-3.594-13.479-5.716-21.333-5.716s-15.214 2.123-21.535 5.825l0.201-0.109c-13.392 6.828-22.597 20.166-23.462 35.73l-0.005 0.11v810.667c0 23.564 19.103 42.667 42.667 42.667v0h682.667c23.564 0 42.667-19.103 42.667-42.667v0-810.667c0-0.035 0-0.076 0-0.116 0-16.054-8.866-30.037-21.969-37.319l-0.218-0.111c-5.859-3.224-12.841-5.121-20.267-5.121-0.075 0-0.15 0-0.225 0.001h0.012zM597.333 140.8c0.093 0.001 0.204 0.001 0.315 0.001 8.604 0 16.614-2.547 23.315-6.928l-0.163 0.1 61.867-40.533 61.867 40.533c6.607 4.407 14.73 7.033 23.467 7.033s16.859-2.626 23.623-7.131l-0.156 0.098 19.2-12.8v689.493h-597.333v-689.493l19.2 12.8c6.607 4.407 14.73 7.033 23.467 7.033s16.859-2.626 23.623-7.131l-0.156 0.098 61.867-40.533 61.867 40.533c6.607 4.407 14.73 7.033 23.467 7.033s16.859-2.626 23.623-7.131l-0.156 0.098 61.867-40.533 61.867 40.533c6.539 4.281 14.548 6.828 23.152 6.828 0.111 0 0.221 0 0.331-0.001h-0.017zM384 682.667h256c23.564 0 42.667-19.103 42.667-42.667s-19.103-42.667-42.667-42.667h-256c-23.564 0-42.667 19.103-42.667 42.667s19.103 42.667 42.667 42.667zM384 516.693h256c23.564 0 42.667-19.103 42.667-42.667s-19.103-42.667-42.667-42.667h-256c-23.564 0-42.667 19.103-42.667 42.667s19.103 42.667 42.667 42.667zM384 350.72h256c23.564 0 42.667-19.103 42.667-42.667s-19.103-42.667-42.667-42.667h-256c-23.564 0-42.667 19.103-42.667 42.667s19.103 42.667 42.667 42.667z" />
<glyph unicode="&#xe91b;" glyph-name="billing" d="M576 490.667h-31.573v256h159.573c23.564 0 42.667 19.103 42.667 42.667s-19.103 42.667-42.667 42.667v0h-159.573v85.333c0 23.564-19.103 42.667-42.667 42.667s-42.667-19.103-42.667-42.667v0-85.333h-11.093c-117.821 0-213.333-95.513-213.333-213.333s95.513-213.333 213.333-213.333v0h11.093v-256h-139.093c-23.564 0-42.667-19.103-42.667-42.667s19.103-42.667 42.667-42.667v0h139.093v-85.333c0-23.564 19.103-42.667 42.667-42.667s42.667 19.103 42.667 42.667v0 85.333h31.573c117.821 0 213.333 95.513 213.333 213.333s-95.513 213.333-213.333 213.333v0zM448 490.667c-70.692 0-128 57.308-128 128s57.308 128 128 128v0h11.093v-256zM576 149.333h-31.573v256h31.573c70.692 0 128-57.308 128-128s-57.308-128-128-128v0z" />
<glyph unicode="&#xe91c;" glyph-name="blowhorn" d="M934.4 874.667c-25.921 0-46.933-21.013-46.933-46.933v-31.147l-725.333-165.973c-67.983-10.334-119.475-68.375-119.475-138.441 0-0.529 0.003-1.058 0.009-1.586l-0.001 0.080v-81.067c0-0.059 0-0.128 0-0.197 0-69.389 50.346-127.018 116.502-138.352l0.832-0.118 42.667-7.253v-148.48c0-0.042 0-0.092 0-0.142 0-23.124 16.877-42.307 38.986-45.902l0.268-0.036 281.6-46.933h7.68c25.921 0 46.933 21.013 46.933 46.933v0 132.267l309.333-52.053v-32.427c0-25.921 21.013-46.933 46.933-46.933s46.933 21.013 46.933 46.933v0 710.827c0 25.921-21.013 46.933-46.933 46.933v0zM485.12 123.733l-186.453 31.147v92.587l187.733-31.147zM887.467 244.907l-712.107 117.76c-22.177 3.809-38.839 22.894-38.839 45.87 0 0.374 0.004 0.747 0.013 1.118l-0.001-0.055v81.067c0.328 24.242 18.819 44.064 42.465 46.49l0.202 0.017 708.267 162.987z" />
<glyph unicode="&#xe91d;" glyph-name="call" d="M974.507 215.893l-2.133 5.12c-9.387 25.173-49.92 68.693-125.013 133.547-14.934 13.31-31.208 26.198-48.211 38.118l-1.709 1.136c-11.852 9.144-26.379 15.395-42.224 17.447l-0.443 0.047c-2.209 0.203-4.777 0.319-7.372 0.319-27.016 0-51.1-12.554-66.735-32.147l-0.132-0.172-3.84-3.84c-4.771-4.825-9.244-9.975-13.372-15.401l-0.282-0.386-8.107-8.96c-17.067-20.48-26.453-30.72-31.573-35.84-23.942 10.643-44.583 23.351-63.263 38.396l0.543-0.423c-58.549 47.561-110.306 99.319-156.335 155.922l-1.532 1.944c-13.144 18.73-25.653 40.131-36.372 62.551l-1.175 2.729c6.4 6.827 18.347 17.493 35.413 32l22.613 19.627 4.693 4.267c20.361 15.754 33.343 40.194 33.343 67.667 0 3.217-0.178 6.393-0.525 9.518l0.035-0.385c-3.011 14.466-8.807 27.226-16.836 38.256l0.196-0.282c-12.662 18.759-25.283 35.040-38.863 50.456l0.463-0.536-3.413 3.84c-37.623 48.167-81.576 89.135-131.103 122.455l-2.017 1.278h-5.973c-5.874 1.514-12.617 2.383-19.564 2.383-20.671 0-39.544-7.696-53.911-20.379l0.088 0.076c-31.655-25.7-59.633-53.678-84.505-84.281l-0.828-1.052c-25.471-28.826-45.559-63.086-58.269-100.742l-0.611-2.084c-4.597-16.044-7.241-34.471-7.241-53.516 0-30.086 6.597-58.631 18.424-84.267l-0.517 1.249c23.013-74.45 58.792-138.912 105.221-194.12l-0.688 0.84c86.059-108.008 182.084-202.273 288.363-283.843l3.903-2.877c49.663-37.151 106.809-68.301 168.171-90.684l4.629-1.476c26.655-11.603 57.659-18.607 90.229-19.197l0.224-0.003c1.61-0.059 3.502-0.092 5.402-0.092 16.494 0 32.397 2.53 47.343 7.222l-1.118-0.303c40.021 13.43 74.461 33.976 103.488 60.37l-0.234-0.21c31.632 25.726 59.607 53.701 84.504 84.282l0.829 1.051c12.752 13.97 20.562 32.64 20.562 53.135 0 7.201-0.964 14.177-2.771 20.805l0.129-0.553zM274.773 599.893c-10.667-32 3.84-69.547 55.893-142.933v-2.133c51.737-63.517 108.412-119.516 170.551-168.939l2.249-1.727c15.36-12.373 94.293-73.387 145.493-58.453 31.617 15.535 57.654 38.153 76.794 65.896l0.433 0.664 10.24 11.947c2.56 2.987 4.693 5.973 7.68 8.96l4.267 5.12c14.713-10.146 27.513-20.236 39.643-31.061l-0.389 0.341c34.157-29.062 65.082-59.041 93.974-90.898l0.746-0.835c-21.831-24.412-45.124-46.488-70.116-66.532l-1.137-0.882c-20.828-18.105-45.36-32.604-72.23-42.175l-1.583-0.492c-7.641-1.69-16.418-2.658-25.421-2.658-19.634 0-38.192 4.605-54.654 12.793l0.714-0.321h-5.973c-56.059 20.284-104.601 46.82-148.228 79.551l1.455-1.045c-102.71 80.548-192.644 169.67-271.411 268.115l-2.509 3.245c-36.245 45.318-65.535 98.148-85.1 155.483l-1.086 3.664v6.827c-7.416 15.918-11.743 34.558-11.743 54.208 0 9.511 1.014 18.785 2.939 27.72l-0.156-0.862c10.637 27.408 25.054 51.013 42.914 71.544l-0.247-0.291c20.467 25.97 41.846 49.107 64.891 70.47l0.389 0.357c32.909-29.808 63.036-61.016 90.974-94.131l1.186-1.443c10.263-11.695 20.346-24.488 29.745-37.799l0.975-1.455-4.267-3.84c-6.444-6.382-13.41-12.265-20.819-17.57l-0.515-0.35c-28.361-19.463-50.969-45.352-66.042-75.65l-0.518-1.15z" />
<glyph unicode="&#xe91e;" glyph-name="user-add-variant" d="M597.333 149.333h-42.667v42.667c0 23.564-19.103 42.667-42.667 42.667s-42.667-19.103-42.667-42.667v0-42.667h-42.667c-23.564 0-42.667-19.103-42.667-42.667s19.103-42.667 42.667-42.667v0h42.667v-42.667c0-23.564 19.103-42.667 42.667-42.667s42.667 19.103 42.667 42.667v0 42.667h42.667c23.564 0 42.667 19.103 42.667 42.667s-19.103 42.667-42.667 42.667v0zM512 490.667c117.821 0 213.333 95.513 213.333 213.333s-95.513 213.333-213.333 213.333c-117.821 0-213.333-95.513-213.333-213.333v0c0-117.821 95.513-213.333 213.333-213.333v0zM512 832c70.692 0 128-57.308 128-128s-57.308-128-128-128c-70.692 0-128 57.308-128 128v0c0 70.692 57.308 128 128 128v0zM682.667 405.333h-341.333c-141.385 0-256-114.615-256-256v0-42.667c0-23.564 19.103-42.667 42.667-42.667v0 0c23.564 0 42.667 19.103 42.667 42.667v0 42.667c0 94.257 76.41 170.667 170.667 170.667v0h341.333c94.257 0 170.667-76.41 170.667-170.667v0-42.667c0-23.564 19.103-42.667 42.667-42.667v0 0c23.564 0 42.667 19.103 42.667 42.667v0 42.667c0 141.385-114.615 256-256 256v0z" />
<glyph unicode="&#xe91f;" glyph-name="check" d="M405.333 277.333l-217.6 217.6c-7.885 9.796-19.874 16.011-33.315 16.011-23.564 0-42.667-19.103-42.667-42.667 0-13.548 6.314-25.621 16.161-33.437l0.088-0.067 247.040-247.040c7.733-7.795 18.45-12.621 30.293-12.621s22.56 4.826 30.291 12.618l460.376 460.376c10.41 7.867 17.067 20.223 17.067 34.133 0 23.564-19.103 42.667-42.667 42.667-13.911 0-26.267-6.657-34.056-16.959l-0.078-0.107z" />
<glyph unicode="&#xe920;" glyph-name="childcare" d="M1024 362.667v101.12c-0.802 125.224-51.849 238.372-133.97 320.423l-0.003 0.003c-81.909 82.235-195.239 133.12-320.454 133.12-0.14 0-0.281 0-0.421 0h0.022c-23.564 0-42.667-19.103-42.667-42.667v0-371.627h-293.12v125.867c-0.757 37.891-16.981 71.85-42.596 95.935l-0.070 0.065c-24.465 25.943-58.929 42.227-97.199 42.666l-0.081 0.001h-50.773c-19.635-4.092-34.176-21.254-34.176-41.813s14.541-37.722 33.899-41.765l0.277-0.048h52.907c0.074 0 0.161 0.001 0.248 0.001 15.456 0 29.423-6.37 39.421-16.629l0.011-0.012c10-9.572 16.215-23.027 16.215-37.935 0-0.164-0.001-0.327-0.002-0.49v0.025-266.24c0.37-66.543 33.798-125.2 84.681-160.426l0.652-0.427c-19.65-23.54-31.581-54.118-31.581-87.483 0-38.243 15.674-72.824 40.948-97.672l0.019-0.019c25.369-23.651 59.522-38.17 97.067-38.17s71.697 14.519 97.151 38.248l-0.085-0.078c25.148 25.359 40.689 60.28 40.689 98.831 0 20.272-4.297 39.54-12.030 56.943l0.355-0.894h235.52c-7.217-16.617-11.447-35.965-11.52-56.292v-0.028c0.648-38.312 16.88-72.71 42.611-97.227l0.056-0.053c24.969-24.386 59.154-39.43 96.853-39.43s71.885 15.044 96.88 39.457l-0.027-0.026c24.669 25.21 39.891 59.751 39.891 97.847 0 33.349-11.665 63.973-31.137 88.016l0.206-0.262c11.387 7.486 21.302 15.639 30.274 24.727l0.019 0.019c33.702 34.764 54.611 82.099 55.039 134.316l0.001 0.084zM829.013 252.16h-487.68c-30.36 0.213-57.709 12.926-77.191 33.242l-0.036 0.038c-19.006 19.252-30.745 45.717-30.745 74.924 0 0.81 0.009 1.617 0.027 2.422l-0.002-0.12v60.16h707.413v-60.16c0.003-0.321 0.005-0.701 0.005-1.082 0-30.224-12.228-57.593-32.008-77.428l0.002 0.002c-19.884-19.041-46.91-30.764-76.675-30.764-1.094 0-2.185 0.016-3.272 0.047l0.16-0.004zM304.213 154.453c10.254 10.353 24.402 16.835 40.063 17.066l0.044 0.001c30.362-0.949 54.613-25.79 54.613-56.294 0-0.009 0-0.018 0-0.027v0.001c-0.071-15.253-6.433-29.007-16.623-38.81l-0.017-0.017c-10.057-9.489-23.654-15.321-38.613-15.321s-28.556 5.832-38.641 15.346l0.028-0.026c-10.033 9.972-16.242 23.781-16.242 39.040s6.209 29.068 16.239 39.037l0.003 0.003zM791.040 154.453c10.122 10.058 23.886 16.463 39.141 17.063l0.112 0.004c30.297-0.438 54.689-25.101 54.689-55.461 0-15.549-6.398-29.604-16.705-39.675l-0.011-0.010c-10.124-9.516-23.793-15.362-38.827-15.362s-28.703 5.846-38.856 15.39l0.030-0.028c-10.070 9.748-16.396 23.312-16.639 38.355l-0.001 0.045c0.203 15.576 6.698 29.596 17.054 39.667l0.013 0.013zM938.667 504.747h-328.533v327.253c172.142-20.489 307.366-155.276 328.351-325.438l0.183-1.816z" />
<glyph unicode="&#xe921;" glyph-name="spine" d="M862.72 378.453h-3.84c-19.788-0.066-39.129-1.77-57.955-4.984l2.062 0.291v142.080c19.201-2.992 41.347-4.701 63.891-4.701 0.938 0 1.876 0.003 2.813 0.009l-0.144-0.001h11.947c35.575 3.219 66.566 20.553 87.716 46.284l0.177 0.222c18.703 22.107 30.073 50.94 30.073 82.428 0 4.479-0.23 8.905-0.679 13.265l0.046-0.547c-8.49 66.797-64.968 117.92-133.386 117.92-2.308 0-4.602-0.058-6.881-0.173l0.32 0.013c-20.255-0.54-39.571-2.228-58.53-5.011l2.636 0.318v60.587c0.202 2.364 0.317 5.115 0.317 7.893s-0.115 5.53-0.34 8.25l0.024-0.356c-7.786 54.806-54.393 96.488-110.735 96.488-6.095 0-12.076-0.488-17.906-1.426l0.641 0.085h-4.267c-46.698-12.302-101.040-20.699-156.878-23.396l-1.842-0.071c-57.606 2.611-111.973 10.862-164.285 24.248l5.565-1.208h-4.267c-5.19 0.854-11.17 1.341-17.265 1.341-56.342 0-102.949-41.683-110.665-95.893l-0.069-0.595c-0.202-2.364-0.317-5.115-0.317-7.893s0.115-5.53 0.34-8.25l-0.024 0.356v-59.733c-16.323 2.466-35.638 4.154-55.243 4.68l-0.65 0.014c-1.959 0.102-4.253 0.16-6.561 0.16-68.418 0-124.896-51.123-133.317-117.254l-0.069-0.666c-0.403-3.814-0.633-8.239-0.633-12.719 0-31.488 11.37-60.321 30.229-82.617l-0.155 0.188c21.327-25.953 52.318-43.288 87.396-46.47l0.497-0.036h11.947c0.793-0.005 1.73-0.008 2.669-0.008 22.545 0 44.69 1.709 66.314 5.005l-2.423-0.304v-142.507c-16.764 2.923-36.105 4.627-55.832 4.693h-3.901c-0.912 0.022-1.986 0.035-3.063 0.035-68.44 0-124.894-51.319-132.98-117.576l-0.064-0.646c-0.359-3.626-0.563-7.837-0.563-12.097 0-67.562 51.486-123.099 117.364-129.515l0.533-0.042h11.947c0.954-0.008 2.082-0.012 3.21-0.012 22.355 0 44.311 1.711 65.743 5.008l-2.394-0.303v-44.8c-0.020-0.781-0.032-1.7-0.032-2.622 0-54.074 39.448-98.935 91.137-107.373l0.628-0.085s132.267-10.667 199.253-10.667 199.253 10.667 199.253 10.667c52.316 8.523 91.765 53.384 91.765 107.458 0 0.922-0.011 1.841-0.034 2.758l0.003-0.136v44.373c19.039-2.995 40.994-4.705 63.35-4.705 1.129 0 2.257 0.004 3.383 0.013l-0.173-0.001h11.947c66.41 6.458 117.897 61.995 117.897 129.557 0 4.259-0.205 8.471-0.605 12.625l0.041-0.528c-7.951 67.102-64.503 118.647-133.094 118.647-1.059 0-2.116-0.012-3.169-0.037l0.157 0.003zM231.68 600.747c-22.070-5.154-47.411-8.109-73.443-8.109-0.43 0-0.86 0.001-1.29 0.002h0.066c-0.262-0.005-0.572-0.008-0.882-0.008-26.973 0-48.949 21.392-49.889 48.135l-0.002 0.086c-0.101 0.705-0.158 1.519-0.158 2.347s0.057 1.642 0.169 2.439l-0.011-0.092c4.911 24.548 26.291 42.785 51.929 42.785 1.245 0 2.479-0.043 3.702-0.128l-0.165 0.009c24.067-0.332 47.277-3.268 69.585-8.539l-2.171 0.433c3.892-0.89 8.361-1.4 12.949-1.4 14.171 0 27.206 4.865 37.526 13.017l-0.128-0.097c14.288 10.838 23.431 27.814 23.467 46.927v87.899c0 21.333 12.8 35.413 32 30.72 52.249-13.5 112.94-22.528 175.293-25.115l1.774-0.058c64.051 2.49 124.767 11.371 183.182 26.048l-6.115-1.301c19.2 4.693 33.707-9.387 32-30.72v-87.467c0.017-18.378 8.451-34.783 21.654-45.57l0.106-0.084c10.192-8.054 23.227-12.92 37.398-12.92 4.588 0 9.057 0.51 13.353 1.476l-0.405-0.076c20.136 4.838 43.346 7.775 67.186 8.104l0.228 0.002c1.058 0.075 2.293 0.118 3.537 0.118 25.639 0 47.018-18.237 51.873-42.447l0.057-0.338c0.101-0.705 0.158-1.519 0.158-2.347s-0.057-1.642-0.169-2.439l0.011 0.092c-0.942-26.829-22.918-48.221-49.891-48.221-0.31 0-0.62 0.003-0.929 0.008l0.046-0.001c-0.363-0.001-0.794-0.002-1.224-0.002-26.031 0-51.372 2.955-75.706 8.547l2.264-0.438h-12.8c-13.774-0.094-26.406-4.902-36.383-12.89l0.117 0.090c-13.302-10.402-21.772-26.451-21.772-44.479 0-0.413 0.004-0.825 0.013-1.235l-0.001 0.061v-37.12c0-26.453-5.12-29.44-24.32-29.867h-368.64c-19.2 0-24.32 3.413-24.32 29.867v37.12c0.008 0.349 0.012 0.761 0.012 1.174 0 18.028-8.47 34.077-21.648 44.386l-0.124 0.093c-9.86 7.898-22.493 12.706-36.246 12.8h-0.021zM867.413 199.68c-26.679 0.155-52.583 3.1-77.548 8.557l2.454-0.45c-1.924 0.307-4.141 0.483-6.4 0.483s-4.477-0.176-6.64-0.514l0.24 0.031c-13.757-0.232-26.354-5.013-36.398-12.899l0.131 0.099c-13.307-10.564-21.765-26.739-21.765-44.889 0-0.269 0.002-0.537 0.006-0.805v0.041-72.533c-0.253-15.338-11.554-27.961-26.278-30.271l-0.176-0.023c-52.974-7.549-116.241-12.913-180.365-14.869l-2.675-0.065c-66.799 2.021-130.066 7.384-192.3 15.981l9.26-1.047c-14.899 2.332-26.2 14.956-26.453 30.267v72.559c0.008 0.353 0.012 0.768 0.012 1.185 0 18.154-8.461 34.331-21.654 44.805l-0.118 0.090c-9.912 7.787-22.51 12.568-36.215 12.799l-0.052 0.001c-1.924 0.307-4.141 0.483-6.4 0.483s-4.477-0.176-6.64-0.514l0.24 0.031c-22.51-5.007-48.415-7.952-74.98-8.106l-0.113-0.001c-0.132-0.001-0.287-0.002-0.443-0.002-27.121 0-49.19 21.627-49.902 48.576l-0.001 0.066c-0.092 0.705-0.144 1.52-0.144 2.347s0.052 1.642 0.154 2.442l-0.010-0.095c5.615 24.653 27.348 42.775 53.315 42.775 1.207 0 2.406-0.039 3.594-0.116l-0.162 0.008c24.102-0.411 47.321-3.187 69.736-8.108l-2.323 0.428c3.985-0.955 8.561-1.502 13.265-1.502 14.085 0 27.022 4.91 37.195 13.111l-0.114-0.089c13.519 10.762 22.125 27.196 22.187 45.643v47.37h418.133v-47.36c0.089-18.233 8.512-34.481 21.651-45.141l0.109-0.085c10.059-8.113 22.997-13.022 37.082-13.022 4.704 0 9.279 0.548 13.667 1.582l-0.402-0.080c20.093 4.493 43.311 7.269 67.107 7.676l0.306 0.004c1.026 0.069 2.224 0.108 3.432 0.108 25.966 0 47.7-18.122 53.244-42.408l0.070-0.367c0.092-0.705 0.144-1.52 0.144-2.347s-0.052-1.642-0.154-2.442l0.010 0.095c-0.242-27.386-22.498-49.493-49.918-49.493-0.001 0-0.001 0-0.002 0v0z" />
<glyph unicode="&#xe922;" glyph-name="close" d="M826.027 822.613l-314.027-314.453-314.027 314.453c-7.753 7.753-18.463 12.548-30.293 12.548-23.661 0-42.841-19.181-42.841-42.841 0-11.83 4.795-22.541 12.548-30.293v0l314.453-314.027-314.453-314.027c-7.753-7.753-12.548-18.463-12.548-30.293 0-23.661 19.181-42.841 42.841-42.841 11.83 0 22.541 4.795 30.293 12.548v0l314.027 314.453 314.027-314.453c7.753-7.753 18.463-12.548 30.293-12.548 23.661 0 42.841 19.181 42.841 42.841 0 11.83-4.795 22.541-12.548 30.293v0l-314.453 314.027 314.453 314.027c7.753 7.753 12.548 18.463 12.548 30.293 0 23.661-19.181 42.841-42.841 42.841-11.83 0-22.541-4.795-30.293-12.548v0z" />
<glyph unicode="&#xe923;" glyph-name="comment" d="M512 874.667c-260.267 0-469.333-170.667-469.333-379.733 2.771-101.983 48.242-192.824 119.1-255.68l0.367-0.32 8.533-174.933c0-0.071-0.001-0.154-0.001-0.237 0-16.059 8.449-30.144 21.144-38.053l0.19-0.11c5.186-2.785 11.346-4.421 17.889-4.421 1.213 0 2.412 0.056 3.596 0.166l-0.152-0.011c0.811-0.091 1.75-0.143 2.702-0.143 5.362 0 10.339 1.648 14.452 4.466l-0.087-0.057 183.467 93.867c29.092-4.862 63.007-7.943 97.53-8.525l0.603-0.008c260.267 0 469.333 170.667 469.333 379.733s-209.067 384-469.333 384zM588.8 209.067c-19.24-2.828-41.45-4.442-64.038-4.442-4.488 0-8.961 0.064-13.418 0.19l0.656-0.015c-0.756-0.005-1.65-0.008-2.544-0.008-36.977 0-72.864 4.671-107.101 13.456l2.978-0.648-110.933-55.467-38.4-21.333v38.4l-4.267 106.667c-36.291 26.345-66.249 59.025-88.782 96.66l-0.818 1.474c-17.534 32.107-28.421 70.097-29.854 110.494l-0.012 0.44c0 162.133 170.667 290.133 384 290.133s384-132.267 384-290.133c-4.267-140.8-136.533-260.267-311.467-285.867z" />
<glyph unicode="&#xe924;" glyph-name="comment-square" d="M213.333 874.667h597.333c70.692 0 128-57.308 128-128v0-426.667c0-70.692-57.308-128-128-128v0h-494.933l-157.867-157.867c-7.134-7.883-17.403-12.814-28.824-12.814-0.366 0-0.732 0.005-1.096 0.015l0.054-0.001c-0.811-0.091-1.75-0.143-2.702-0.143-5.362 0-10.339 1.648-14.452 4.466l0.087-0.057c-15.054 4.962-25.727 18.899-25.727 35.328 0 1.081 0.046 2.152 0.137 3.209l-0.010-0.138v682.667c0 70.692 57.308 128 128 128v0zM810.667 277.333c0.792-0.056 1.716-0.087 2.647-0.087 22.15 0 40.107 17.956 40.107 40.107 0 0.932-0.032 1.856-0.094 2.771l0.007-0.124v426.667c0.056 0.792 0.087 1.716 0.087 2.647 0 22.15-17.956 40.107-40.107 40.107-0.932 0-1.856-0.032-2.771-0.094l0.124 0.007h-597.333c-0.792 0.056-1.716 0.087-2.647 0.087-22.15 0-40.107-17.956-40.107-40.107 0-0.932 0.032-1.856 0.094-2.771l-0.007 0.124v-580.267l98.133 98.133c7.134 7.883 17.403 12.814 28.824 12.814 0.366 0 0.732-0.005 1.096-0.015l-0.054 0.001z" />
<glyph unicode="&#xe925;" glyph-name="comment-square-variant" d="M810.667 874.667h-597.333c-70.692 0-128-57.308-128-128v0-426.667c0-70.692 57.308-128 128-128v0h42.667v-128c0.045-16.18 9.088-30.237 22.388-37.435l0.226-0.112c5.798-3.19 12.701-5.082 20.042-5.12h0.012c8.761 0.071 16.878 2.771 23.616 7.349l-0.149-0.095 247.893 163.413h240.64c70.692 0 128 57.308 128 128v0 426.667c0 70.692-57.308 128-128 128v0zM853.333 320c0-23.564-19.103-42.667-42.667-42.667v0h-265.813l-203.52-133.973v133.973h-128c-23.564 0-42.667 19.103-42.667 42.667v0 426.667c0 23.564 19.103 42.667 42.667 42.667v0h597.333c23.564 0 42.667-19.103 42.667-42.667v0z" />
<glyph unicode="&#xe926;" glyph-name="chat" d="M896 682.667h-213.333v85.333c0 70.692-57.308 128-128 128v0h-426.667c-70.692 0-128-57.308-128-128v0-298.667c0-70.692 57.308-128 128-128v0-85.333c0.045-16.18 9.088-30.237 22.388-37.435l0.226-0.112c5.798-3.19 12.701-5.082 20.042-5.12h0.012c8.761 0.071 16.878 2.771 23.616 7.349l-0.149-0.095 147.2 86.613v-51.2c0-70.692 57.308-128 128-128v0h155.307l205.227-120.747c6.589-4.482 14.706-7.183 23.449-7.253h0.018c7.353 0.038 14.255 1.93 20.275 5.231l-0.222-0.111c13.525 7.309 22.569 21.367 22.613 37.541v85.339c70.692 0 128 57.308 128 128v0 298.667c0 70.692-57.308 128-128 128v0zM213.333 335.36v90.88h-85.333c-23.564 0-42.667 19.103-42.667 42.667v0 298.667c0 23.564 19.103 42.667 42.667 42.667v0h426.667c23.564 0 42.667-19.103 42.667-42.667v0-298.667c0-23.564-19.103-42.667-42.667-42.667v0h-180.48zM938.667 256c0-23.564-19.103-42.667-42.667-42.667v0h-85.333v-90.88l-160.853 90.88h-180.48c-23.564 0-42.667 19.103-42.667 42.667v0 85.333h128c70.692 0 128 57.308 128 128v0 128h213.333c23.564 0 42.667-19.103 42.667-42.667v0z" />
<glyph unicode="&#xe927;" glyph-name="car" d="M791.040 363.947c0-35.346-28.654-64-64-64s-64 28.654-64 64c0 35.346 28.654 64 64 64s64-28.654 64-64zM360.96 363.947c0-35.346-28.654-64-64-64s-64 28.654-64 64c0 35.346 28.654 64 64 64s64-28.654 64-64zM898.133 576l-78.933 242.347c-12.756 45.126-53.566 77.642-101.972 77.653h-410.455c-48.408-0.011-89.218-32.527-101.793-76.908l-0.181-0.746-76.8-242.347c-49.327-14.012-84.921-58.474-85.333-111.313v-236.847c0.482-44.639 36.781-80.64 81.489-80.64 0.002 0 0.003 0 0.005 0h3.84v-19.2c0-70.692 57.308-128 128-128s128 57.308 128 128v0 19.2h256v-19.2c0-70.692 57.308-128 128-128s128 57.308 128 128v0 19.2c1.148-0.058 2.492-0.091 3.844-0.091 44.739 0 81.058 36.052 81.489 80.69v236.841c-0.123 52.356-34.769 96.588-82.375 111.143l-0.825 0.217zM285.867 797.44c2.527 9.167 10.79 15.789 20.6 15.789 0.108 0 0.215-0.001 0.323-0.002h410.437c0.091 0.001 0.199 0.002 0.306 0.002 9.81 0 18.074-6.622 20.565-15.639l0.035-0.15 72.533-216.747h-597.333zM256 85.333c-23.564 0-42.667 19.103-42.667 42.667v0 19.2h85.333v-19.2c0-23.564-19.103-42.667-42.667-42.667v0zM128 229.973v0 234.667c-0.002 0.127-0.003 0.277-0.003 0.427 0 18.38 14.9 33.28 33.28 33.28 0.001 0 0.002 0 0.003 0h704c18.667-0.241 33.707-15.429 33.707-34.131 0-0.001 0-0.002 0-0.003v0-234.24zM768 85.333c-23.564 0-42.667 19.103-42.667 42.667v0 19.2h85.333v-19.2c0-23.564-19.103-42.667-42.667-42.667v0z" />
<glyph unicode="&#xe928;" glyph-name="screen" d="M938.667 853.333h-853.333c-23.564 0-42.667-19.103-42.667-42.667v0-576c0-23.564 19.103-42.667 42.667-42.667v0h302.507v-64h-94.293c-23.564 0-42.667-19.103-42.667-42.667s19.103-42.667 42.667-42.667v0h436.907c23.564 0 42.667 19.103 42.667 42.667s-19.103 42.667-42.667 42.667v0h-94.293v64h302.507c23.564 0 42.667 19.103 42.667 42.667v0 577.28c-0.712 23.007-19.533 41.387-42.647 41.387-0.007 0-0.014 0-0.020 0h0.001zM469.333 128v64h85.333v-64zM896 274.773h-770.56v82.773h773.12zM896 440.32h-770.56v330.24h773.12z" />
<glyph unicode="&#xe929;" glyph-name="compliance" d="M896 853.333h-768c-0.792 0.056-1.716 0.087-2.647 0.087-22.15 0-40.107-17.956-40.107-40.107 0-0.932 0.032-1.856 0.094-2.771l-0.007 0.124v-341.333c0-235.641 191.025-426.667 426.667-426.667s426.667 191.025 426.667 426.667v0 341.333c0.056 0.792 0.087 1.716 0.087 2.647 0 22.15-17.956 40.107-40.107 40.107-0.932 0-1.856-0.032-2.771-0.094l0.124 0.007zM853.333 512c0.044-2.85 0.069-6.213 0.069-9.582 0-26.692-1.575-53.016-4.638-78.884l0.302 3.133c-23.111-168.090-164.768-296.489-336.842-298.664l-0.225-0.002c-172.299 2.177-313.956 130.577-336.864 296.87l-0.203 1.797c0 12.8-4.267 85.333-4.267 85.333v256h682.667zM512 332.8v0c-0.31-0.009-0.676-0.014-1.042-0.014-11.421 0-21.69 4.931-28.795 12.781l-0.030 0.033-149.333 149.333c-10.41 7.867-17.067 20.223-17.067 34.133 0 23.564 19.103 42.667 42.667 42.667 13.911 0 26.267-6.657 34.056-16.959l0.078-0.107 119.467-119.467 119.467 119.467c7.867 10.41 20.223 17.067 34.133 17.067 23.564 0 42.667-19.103 42.667-42.667 0-13.911-6.657-26.267-16.959-34.056l-0.107-0.078-149.333-149.333c-7.134-7.883-17.403-12.814-28.824-12.814-0.366 0-0.732 0.005-1.096 0.015l0.054-0.001z" />
<glyph unicode="&#xe92a;" glyph-name="test-tube" d="M191.645-21.278c-92.055-2.291-177.282 66.731-190.142 170.108-7.317 58.906 12.327 109.133 53.389 150.818 121.632 123.435 246.236 243.853 369.287 365.847 48.069 47.619 96.534 94.834 144.781 142.274 9.933 9.803 9.621 9.623-0.623 19.021-7.095 6.52-13.922 13.445-20.087 20.909-16.674 20.19-17.203 37.143-2.351 54.32 14.545 16.817 39.287 20.235 58.445 8.004 11.354-7.284 19.908-17.852 29.444-27.16 68.685-66.955 137.062-134.225 205.615-201.315 26.564-25.99 53.303-51.846 79.821-77.882 12.86-12.636 23.322-26.396 18.044-46.406-8.866-33.455-48.111-44.113-72.986-19.785-13.124 12.815-13.039 12.771-26.428-0.54-88.111-87.549-176.132-175.191-264.418-262.56-77.154-76.352-154.578-152.525-232-228.608-34.41-33.818-73.653-58.684-122.253-65.156-9.090-1.126-18.358-1.259-27.537-1.89zM566.477 397.764c-23.236 0.542-46.473 1.259-69.709 1.621-68.642 1.079-137.329-0.99-205.972 2.155-7.893 0.363-14.278-1.754-19.954-7.42-50.906-50.586-101.989-100.902-152.85-151.535-19.688-19.605-32.060-43.977-32.37-71.676-0.399-35.661 15.298-65.114 44.165-86.067 43.855-31.838 102.609-25.314 143.626 15.108 60.883 60.032 122.032 119.748 182.604 180.139 37.602 37.5 77.291 73.024 110.413 114.978 1.463 0.811 1.95 1.707 0.047 2.697zM362.72 483.516c23.369 0 43.811 0.047 64.297 0 73.877-0.137 147.708-0.137 221.581-0.585 9.225-0.043 16.141 2.654 22.66 9.126 36.625 36.425 73.344 72.803 110.455 108.731 6.963 6.745 6.123 10.342-0.354 16.638-44.565 43.168-88.994 86.56-132.937 130.403-7.94 7.914-12.685 6.655-19.691-0.36-29.133-29.228-58.53-58.186-87.889-87.145-49.485-48.788-99.106-97.487-148.546-146.319-9.135-9.041-17.914-18.483-29.577-30.49zM896.905-21.239c-59.895 0.32-115.14 48.35-126.835 110.537-5.572 29.636 0.674 57.865 11.989 85.043 27.2 65.463 66.308 122.645 105.958 179.413 8.090 11.567 16.683 11.93 23.974 0.777 38.771-59.319 77.837-118.502 102.69-186.79 28.254-77.713-9.762-164.894-86.72-184.606-10.479-2.731-21.039-4.962-31.057-4.373zM896.947 65.626c30.135-1.276 57.297 33.417 43.968 66.923-11.234 28.224-24.017 55.36-38.605 81.579-2.47 4.463-4.693 5.282-7.42 0.32-14.626-26.586-31.351-51.806-41.199-81.306-11.695-35.238 8.717-67.516 43.255-67.516z" />
<glyph unicode="&#xe92b;" glyph-name="dashboard" d="M388.267 416h-217.6c-47.128 0-85.333 38.205-85.333 85.333v0 284.16c0 47.128 38.205 85.333 85.333 85.333v0h217.6c47.128 0 85.333-38.205 85.333-85.333v0-284.587c-0.242-46.944-38.354-84.907-85.332-84.907 0 0-0.001 0-0.001 0v0zM170.667 785.493v-284.587h217.6v284.587zM388.267 21.333h-217.6c-47.128 0-85.333 38.205-85.333 85.333v0 148.053c0 47.128 38.205 85.333 85.333 85.333v0h217.6c47.128 0 85.333-38.205 85.333-85.333v0-148.053c0-47.128-38.205-85.333-85.333-85.333v0zM388.267 106.667v0zM170.667 254.72v-148.053h217.6v148.053zM853.333 21.333h-217.6c-47.128 0-85.333 38.205-85.333 85.333v0 284.16c0 47.128 38.205 85.333 85.333 85.333v0h217.6c47.128 0 85.333-38.205 85.333-85.333v0-284.16c0-47.128-38.205-85.333-85.333-85.333v0zM635.733 390.827v0-284.16h217.6v284.16zM853.333 556.373h-217.6c-47.128 0-85.333 38.205-85.333 85.333v0 147.627c0 47.128 38.205 85.333 85.333 85.333v0h217.6c47.128 0 85.333-38.205 85.333-85.333v0-148.053c-0.242-46.944-38.354-84.907-85.332-84.907 0 0-0.001 0-0.001 0v0zM635.733 785.493v0-148.48h217.6v148.48z" />
<glyph unicode="&#xe92c;" glyph-name="delete" d="M917.333 746.667h-192v42.667c0 70.692-57.308 128-128 128v0h-170.667c-70.692 0-128-57.308-128-128v0-42.667h-192c-23.564 0-42.667-19.103-42.667-42.667s19.103-42.667 42.667-42.667v0h64v-554.667c0-70.692 57.308-128 128-128v0h426.667c70.692 0 128 57.308 128 128v0 554.667h64c23.564 0 42.667 19.103 42.667 42.667s-19.103 42.667-42.667 42.667v0zM384 789.333c0 23.564 19.103 42.667 42.667 42.667v0h170.667c23.564 0 42.667-19.103 42.667-42.667v0-42.667h-256zM768 106.667c0-23.564-19.103-42.667-42.667-42.667v0h-426.667c-23.564 0-42.667 19.103-42.667 42.667v0 554.667h512z" />
<glyph unicode="&#xe92d;" glyph-name="delete-column" d="M835.413 427.093v-341.333c0-23.564-19.103-42.667-42.667-42.667s-42.667 19.103-42.667 42.667v0 341.333c0 23.564 19.103 42.667 42.667 42.667s42.667-19.103 42.667-42.667v0zM901.547 684.373l-48.213 48.213 48.213 48.213c7.668 7.712 12.407 18.343 12.407 30.080s-4.74 22.368-12.409 30.082l0.002-0.002c-7.733 7.795-18.45 12.621-30.293 12.621s-22.56-4.826-30.291-12.618l-48.216-48.216-48.213 48.213c-7.848 8.064-18.806 13.067-30.933 13.067-23.83 0-43.147-19.318-43.147-43.147 0-11.703 4.659-22.317 12.223-30.090l-0.009 0.010 48.213-48.213-48.213-48.64c-9.153-7.872-14.914-19.467-14.914-32.407 0-23.564 19.103-42.667 42.667-42.667 12.94 0 24.535 5.761 32.36 14.858l0.047 0.056 48.213 48.213 48.213-48.213c7.753-7.753 18.463-12.548 30.293-12.548 23.661 0 42.841 19.181 42.841 42.841 0 11.83-4.795 22.541-12.548 30.293v0zM515.413 811.093v-725.333c0-23.564-19.103-42.667-42.667-42.667s-42.667 19.103-42.667 42.667v0 725.333c0 23.564 19.103 42.667 42.667 42.667s42.667-19.103 42.667-42.667v0zM195.413 811.093v-725.333c0-23.564-19.103-42.667-42.667-42.667s-42.667 19.103-42.667 42.667v0 725.333c0 23.564 19.103 42.667 42.667 42.667s42.667-19.103 42.667-42.667v0z" />
<glyph unicode="&#xe92e;" glyph-name="delete-row" d="M533.76 167.253h-426.667c-23.564 0-42.667 19.103-42.667 42.667s19.103 42.667 42.667 42.667v0h426.667c23.564 0 42.667-19.103 42.667-42.667s-19.103-42.667-42.667-42.667v0zM947.627 161.707l-48.213 48.213 48.213 48.213c8.064 7.848 13.067 18.806 13.067 30.933 0 23.83-19.318 43.147-43.147 43.147-11.703 0-22.317-4.659-30.090-12.223l0.010 0.009-48.213-48.213-48.213 48.213c-7.753 7.753-18.463 12.548-30.293 12.548-23.661 0-42.841-19.181-42.841-42.841 0-11.83 4.795-22.541 12.548-30.293v0l48.64-48.213-48.64-48.213c-7.753-7.753-12.548-18.463-12.548-30.293 0-23.661 19.181-42.841 42.841-42.841 11.83 0 22.541 4.795 30.293 12.548v0l48.213 46.933 48.213-48.213c7.412-6.377 17.129-10.259 27.753-10.259 23.564 0 42.667 19.103 42.667 42.667 0 10.624-3.883 20.341-10.307 27.809l0.047-0.056zM875.093 444.587h-768c-23.564 0-42.667 19.103-42.667 42.667s19.103 42.667 42.667 42.667v0h768c23.564 0 42.667-19.103 42.667-42.667s-19.103-42.667-42.667-42.667v0zM875.093 721.92h-768c-23.564 0-42.667 19.103-42.667 42.667s19.103 42.667 42.667 42.667v0h768c23.564 0 42.667-19.103 42.667-42.667s-19.103-42.667-42.667-42.667v0z" />
<glyph unicode="&#xe92f;" glyph-name="dental" d="M910.080 796.587c-81.92 157.867-233.813 89.6-316.16 52.48-23.656-12.943-51.093-23.001-80.091-28.713l-1.829-0.3c-31.172 6.24-58.878 16.433-84.352 30.222l1.579-0.782c-81.92 36.693-233.813 104.533-315.307-52.907s32-580.267 128-725.333c19.2-29.867 49.92-69.547 92.587-69.547 76.373 0 85.333 79.787 94.72 150.187 13.227 107.947 27.733 152.747 85.333 152.747s71.68-42.667 85.333-152.747c8.533-70.4 18.347-150.187 94.72-150.187 42.667 0 73.387 39.68 92.587 69.547 90.88 145.067 206.080 564.907 122.88 725.333zM719.36 129.707c-7.62-13.764-15.816-25.633-25.033-36.618l0.287 0.351c-4.518 17.916-8.708 40.514-11.63 63.509l-0.317 3.051c-11.093 90.453-27.733 226.987-170.667 226.987s-160.853-136.533-170.667-226.987c-2.723-25.773-6.479-48.444-11.436-70.663l0.769 4.103c-8.931 10.634-17.127 22.503-24.156 35.113l-0.59 1.154c-85.333 152.32-170.667 512-112.213 629.76 23.040 47.36 49.493 53.76 72.107 53.76 47.68-5.96 90.927-20.118 129.979-41.077l-1.979 0.97c34.522-19.299 75.021-32.503 118.11-37.005l1.357-0.115c44.594 4.607 85.24 17.812 121.51 37.944l-1.617-0.824c117.333 52.907 162.56 58.027 199.68-13.653 58.88-116.48-27.307-477.44-113.493-629.76z" />
<glyph unicode="&#xe930;" glyph-name="dental-service" d="M812.8 525.227h-31.147v121.173c60.82 19.33 104.115 75.3 104.115 141.383 0 0.545-0.003 1.089-0.009 1.633l0.001-0.083c0.815 5.784 1.28 12.466 1.28 19.257 0 80.354-65.14 145.493-145.493 145.493s-145.493-65.14-145.493-145.493c0-6.791 0.465-13.472 1.365-20.015l-0.085 0.759c-0.813-3.114-1.28-6.689-1.28-10.372 0-23.564 19.103-42.667 42.667-42.667s42.667 19.103 42.667 42.667c0 3.684-0.467 7.259-1.345 10.668l0.065-0.296c0.952 33.661 28.466 60.587 62.27 60.587 34.404 0 62.293-27.89 62.293-62.293 0-34.395-27.876-62.28-62.269-62.293h-0.001c-0.023 0-0.050 0-0.077 0-22.664 0-41.2-17.67-42.584-39.985l-0.006-0.121v-160h-31.147c-47.128 0-85.333-38.205-85.333-85.333v0-397.227c0-47.128 38.205-85.333 85.333-85.333v0h145.067c46.201 1.192 83.2 38.928 83.2 85.307 0 0.009 0 0.019 0 0.028v-0.001 397.227c0 0.003 0 0.006 0 0.010 0 46.678-37.479 84.603-83.986 85.323l-0.068 0.001zM667.733 439.893h145.067v-397.227h-145.067zM356.267 533.333h-31.147v107.093l94.293 116.053c5.004 6.902 8.005 15.541 8.005 24.88 0 2.82-0.274 5.576-0.796 8.243l0.044-0.27c-2.278 12.628-9.848 23.141-20.283 29.332l-0.197 0.108-189.013 114.347c-5.747 3.485-12.692 5.548-20.119 5.548-4.087 0-8.027-0.624-11.732-1.783l0.278 0.075c-10.806-3.161-19.628-10.179-25.065-19.426l-0.109-0.2c-3.374-5.968-5.362-13.105-5.362-20.707 0-4.018 0.556-7.907 1.594-11.593l-0.072 0.3c2.858-11.086 9.766-20.219 19.016-25.921l148.237-85.439-67.84-84.48c-8.807-10.769-14.144-24.675-14.144-39.827 0-0.999 0.023-1.992 0.069-2.979l-0.005 0.14v-113.493h-28.587c-47.128 0-85.333-38.205-85.333-85.333v0-405.333c0-47.128 38.205-85.333 85.333-85.333v0h145.067c47.128 0 85.333 38.205 85.333 85.333v0 405.333c0 0.008 0 0.017 0 0.027 0 47.128-38.205 85.333-85.333 85.333-0.75 0-1.498-0.010-2.244-0.029l0.11 0.002zM213.333 42.667v405.333h143.36v-405.333h-143.36z" />
<glyph unicode="&#xe931;" glyph-name="user-check" d="M411.733 448c117.821 0 213.333 95.513 213.333 213.333s-95.513 213.333-213.333 213.333c-117.821 0-213.333-95.513-213.333-213.333v0c0-117.821 95.513-213.333 213.333-213.333v0zM411.733 789.333c70.692 0 128-57.308 128-128s-57.308-128-128-128c-70.692 0-128 57.308-128 128v0c0 70.692 57.308 128 128 128v0zM539.733 362.667h-256c-141.385 0-256-114.615-256-256v0-42.667c0-23.564 19.103-42.667 42.667-42.667v0 0c23.564 0 42.667 19.103 42.667 42.667v0 42.667c0 94.257 76.41 170.667 170.667 170.667v0h256c94.257 0 170.667-76.41 170.667-170.667v0-42.667c0-23.564 19.103-42.667 42.667-42.667v0 0c23.564 0 42.667 19.103 42.667 42.667v0 42.667c0 141.385-114.615 256-256 256v0zM829.867 457.387l-68.267 68.267c-7.867 10.41-20.223 17.067-34.133 17.067-23.564 0-42.667-19.103-42.667-42.667 0-13.911 6.657-26.267 16.959-34.056l0.107-0.078 98.133-98.133c7.712-7.668 18.343-12.407 30.080-12.407s22.368 4.74 30.082 12.409l-0.002-0.002 128 130.133c10.41 7.867 17.067 20.223 17.067 34.133 0 23.564-19.103 42.667-42.667 42.667-13.911 0-26.267-6.657-34.056-16.959l-0.078-0.107z" />
<glyph unicode="&#xe932;" glyph-name="list" d="M896 682.667h-512c-23.564 0-42.667 19.103-42.667 42.667s19.103 42.667 42.667 42.667v0h512c23.564 0 42.667-19.103 42.667-42.667s-19.103-42.667-42.667-42.667v0zM128 768c23.564 0 42.667-19.103 42.667-42.667s-19.103-42.667-42.667-42.667c-23.564 0-42.667 19.103-42.667 42.667s19.103 42.667 42.667 42.667zM896 405.333h-512c-23.564 0-42.667 19.103-42.667 42.667s19.103 42.667 42.667 42.667v0h512c23.564 0 42.667-19.103 42.667-42.667s-19.103-42.667-42.667-42.667v0zM128 490.667c23.564 0 42.667-19.103 42.667-42.667s-19.103-42.667-42.667-42.667c-23.564 0-42.667 19.103-42.667 42.667s19.103 42.667 42.667 42.667zM896 128h-512c-23.564 0-42.667 19.103-42.667 42.667s19.103 42.667 42.667 42.667v0h512c23.564 0 42.667-19.103 42.667-42.667s-19.103-42.667-42.667-42.667v0zM128 213.333c23.564 0 42.667-19.103 42.667-42.667s-19.103-42.667-42.667-42.667c-23.564 0-42.667 19.103-42.667 42.667s19.103 42.667 42.667 42.667z" />
<glyph unicode="&#xe933;" glyph-name="document" d="M384 298.667h256c23.564 0 42.667-19.103 42.667-42.667s-19.103-42.667-42.667-42.667h-256c-23.564 0-42.667 19.103-42.667 42.667s19.103 42.667 42.667 42.667zM384 469.333h256c23.564 0 42.667-19.103 42.667-42.667s-19.103-42.667-42.667-42.667h-256c-23.564 0-42.667 19.103-42.667 42.667s19.103 42.667 42.667 42.667zM384 640h29.867c23.564 0 42.667-19.103 42.667-42.667s-19.103-42.667-42.667-42.667h-29.867c-23.564 0-42.667 19.103-42.667 42.667s19.103 42.667 42.667 42.667zM810.667 699.733v0l-196.267 196.267h-358.4c-70.692 0-128-57.308-128-128v0-640c0-70.692 57.308-128 128-128v0h512c70.692 0 128 57.308 128 128v0 486.4zM750.933 640h-110.933v110.933zM810.667 128c0.056-0.792 0.087-1.716 0.087-2.647 0-22.15-17.956-40.107-40.107-40.107-0.932 0-1.856 0.032-2.771 0.094l0.124-0.007h-512c-0.792-0.056-1.716-0.087-2.647-0.087-22.15 0-40.107 17.956-40.107 40.107 0 0.932 0.032 1.856 0.094 2.771l-0.007-0.124v640c-0.056 0.792-0.087 1.716-0.087 2.647 0 22.15 17.956 40.107 40.107 40.107 0.932 0 1.856-0.032 2.771-0.094l-0.124 0.007h298.667v-213.333c-0.056-0.792-0.087-1.716-0.087-2.647 0-22.15 17.956-40.107 40.107-40.107 0.932 0 1.856 0.032 2.771 0.094l-0.124-0.007h213.333z" />
<glyph unicode="&#xe934;" glyph-name="download" d="M917.333 392.533c-0.792 0.056-1.716 0.087-2.647 0.087-22.15 0-40.107-17.956-40.107-40.107 0-0.932 0.032-1.856 0.094-2.771l-0.007 0.124v-192c0.090-1.1 0.141-2.381 0.141-3.673 0-24.638-18.646-44.921-42.597-47.508l-0.211-0.019h-640c-25.6 0-42.667 21.333-42.667 51.2v192c0.056 0.792 0.087 1.716 0.087 2.647 0 22.15-17.956 40.107-40.107 40.107-0.932 0-1.856-0.032-2.771-0.094l0.124 0.007c-0.792 0.056-1.716 0.087-2.647 0.087-22.15 0-40.107-17.956-40.107-40.107 0-0.932 0.032-1.856 0.094-2.771l-0.007 0.124v-192c-0.029-1.046-0.046-2.276-0.046-3.51 0-71.736 56.742-130.219 127.792-133.015l0.254-0.008h640c71.057 1.36 128.138 59.283 128.138 130.538 0 2.109-0.050 4.206-0.149 6.29l0.011-0.295v192c0 23.564-19.103 42.667-42.667 42.667v0zM268.8 546.133l213.333-213.333c7.69-7.542 18.235-12.197 29.867-12.197s22.177 4.655 29.874 12.203l213.326 213.326c5.327 7.042 8.533 15.947 8.533 25.6 0 23.564-19.103 42.667-42.667 42.667-9.653 0-18.558-3.206-25.707-8.611l0.107 0.078-140.8-140.8v366.933c0 23.564-19.103 42.667-42.667 42.667s-42.667-19.103-42.667-42.667v0-366.933l-140.8 140.8c-7.785 7.486-18.221 12.265-29.766 12.796l-0.101 0.004c-0.31 0.009-0.676 0.014-1.042 0.014-11.421 0-21.69-4.931-28.795-12.781l-0.030-0.033c-7.542-7.69-12.197-18.235-12.197-29.867s4.655-22.177 12.203-29.874l-0.007 0.007z" />
<glyph unicode="&#xe935;" glyph-name="cloud-upload" d="M825.6 584.96c-0.657 172.699-140.808 312.444-313.598 312.444-150.886 0-276.884-106.561-306.841-248.531l-0.361-2.046c-117.427-27.939-203.415-131.94-203.415-256.024 0-143.918 115.674-260.819 259.121-262.801l0.187-0.002h20.907c23.564 0 42.667 19.103 42.667 42.667s-19.103 42.667-42.667 42.667v0h-20.907c-96.267 2.564-173.327 81.213-173.327 177.861 0 90.93 68.213 165.929 156.26 176.615l0.854 0.084c20.093 1.938 36.006 17.559 38.38 37.343l0.020 0.203c13.116 115.951 110.643 205.227 229.021 205.227 0.035 0 0.070 0 0.105 0h-0.005c0.231 0.001 0.505 0.001 0.778 0.001 63.466 0 120.87-25.949 162.184-67.816l0.025-0.025c41.693-42.078 67.454-100.003 67.454-163.946 0-10.039-0.635-19.93-1.867-29.634l0.119 1.153c-0.197-1.54-0.31-3.322-0.31-5.13 0-21.415 15.778-39.146 36.343-42.201l0.233-0.028h19.2c76.431-4.284 136.787-67.307 136.787-144.427s-60.356-140.143-136.409-144.41l-0.378-0.017h-53.76c-23.564 0-42.667-19.103-42.667-42.667s19.103-42.667 42.667-42.667v0h53.76c126.027 0.983 227.812 103.375 227.812 229.54 0 115.78-85.718 211.54-197.155 227.279l-1.217 0.141zM682.667 311.467c0.31-0.009 0.676-0.014 1.042-0.014 11.421 0 21.69 4.931 28.795 12.781l0.030 0.033c7.542 7.69 12.197 18.235 12.197 29.867s-4.655 22.177-12.203 29.874l-170.66 170.66c-7.69 7.542-18.235 12.197-29.867 12.197s-22.177-4.655-29.874-12.203l-170.66-170.66c-5.327-7.042-8.533-15.947-8.533-25.6 0-23.564 19.103-42.667 42.667-42.667 9.653 0 18.558 3.206 25.707 8.611l-0.107-0.078 98.133 98.133v-379.733c0-23.564 19.103-42.667 42.667-42.667s42.667 19.103 42.667 42.667v0 379.733l98.133-98.133c7.785-7.486 18.221-12.265 29.766-12.796l0.101-0.004z" />
<glyph unicode="&#xe936;" glyph-name="edit" d="M949.333 644.267l-241.067 241.067c-7.733 7.795-18.45 12.621-30.293 12.621s-22.56-4.826-30.291-12.618l-573.016-573.016c-7.861-7.709-12.749-18.426-12.8-30.284v-241.503c0-23.564 19.103-42.667 42.667-42.667v0h241.493c11.868 0.051 22.584 4.939 30.287 12.793l573.020 573.020c7.795 7.733 12.621 18.45 12.621 30.293s-4.826 22.56-12.618 30.291l-0.003 0.003zM858.88 613.973l-90.88-90.453-180.48 180.48 90.453 90.453zM147.2 83.2v181.333l379.733 379.733 181.333-181.333-379.733-379.733z" />
<glyph unicode="&#xe937;" glyph-name="email" d="M810.667 832h-597.333c-70.692 0-128-57.308-128-128v0-512c0-70.692 57.308-128 128-128v0h597.333c70.692 0 128 57.308 128 128v0 512c0 70.692-57.308 128-128 128v0zM213.333 746.667h597.333c0.792 0.056 1.716 0.087 2.647 0.087 22.15 0 40.107-17.956 40.107-40.107 0-0.932-0.032-1.856-0.094-2.771l0.007 0.124v-21.333l-341.333-226.133-341.333 226.133v21.333c-0.056 0.792-0.087 1.716-0.087 2.647 0 22.15 17.956 40.107 40.107 40.107 0.932 0 1.856-0.032 2.771-0.094l-0.124 0.007zM810.667 149.333h-597.333c-0.792-0.056-1.716-0.087-2.647-0.087-22.15 0-40.107 17.956-40.107 40.107 0 0.932 0.032 1.856 0.094 2.771l-0.007-0.124v388.267l315.733-213.333c7.327-4.526 16.025-7.576 25.346-8.513l0.254-0.021c9.575 0.958 18.273 4.007 25.862 8.683l-0.262-0.15 315.733 213.333v-388.267c0-23.564-19.103-42.667-42.667-42.667v0z" />
<glyph unicode="&#xe938;" glyph-name="emergency-care" d="M597.333 595.2h-42.667v42.667c0 23.564-19.103 42.667-42.667 42.667s-42.667-19.103-42.667-42.667v0-42.667h-42.667c-23.564 0-42.667-19.103-42.667-42.667s19.103-42.667 42.667-42.667v0h42.667v-42.667c0-23.564 19.103-42.667 42.667-42.667s42.667 19.103 42.667 42.667v0 42.667h42.667c23.564 0 42.667 19.103 42.667 42.667s-19.103 42.667-42.667 42.667v0zM896 317.013v216.32c0 212.077-171.923 384-384 384s-384-171.923-384-384v0-217.6c-60.107-10.425-105.425-61.608-106.665-123.604l-0.002-0.13v-85.333c0-70.692 57.308-128 128-128v0h725.333c70.692 0 128 57.308 128 128v0 85.333c-0.605 62.659-46.139 114.506-105.902 124.903l-0.765 0.11zM512 832c164.949 0 298.667-133.718 298.667-298.667v0-213.333h-597.333v213.333c0 164.949 133.718 298.667 298.667 298.667v0zM917.333 106.667c0-23.564-19.103-42.667-42.667-42.667v0h-725.333c-23.564 0-42.667 19.103-42.667 42.667v0 85.333c0 23.564 19.103 42.667 42.667 42.667v0h725.333c23.564 0 42.667-19.103 42.667-42.667v0z" />
<glyph unicode="&#xe939;" glyph-name="user" d="M512 448c117.821 0 213.333 95.513 213.333 213.333s-95.513 213.333-213.333 213.333c-117.821 0-213.333-95.513-213.333-213.333v0c0-117.821 95.513-213.333 213.333-213.333v0zM512 789.333c70.692 0 128-57.308 128-128s-57.308-128-128-128c-70.692 0-128 57.308-128 128v0c0 70.692 57.308 128 128 128v0zM682.667 362.667h-341.333c-141.385 0-256-114.615-256-256v0-42.667c0-23.564 19.103-42.667 42.667-42.667v0 0c23.564 0 42.667 19.103 42.667 42.667v0 42.667c0 94.257 76.41 170.667 170.667 170.667v0h341.333c94.257 0 170.667-76.41 170.667-170.667v0-42.667c0-23.564 19.103-42.667 42.667-42.667v0 0c23.564 0 42.667 19.103 42.667 42.667v0 42.667c0 141.385-114.615 256-256 256v0z" />
<glyph unicode="&#xe93a;" glyph-name="tag" d="M994.56 930.56c-7.712 7.668-18.343 12.407-30.080 12.407s-22.368-4.74-30.082-12.409l-75.091-74.665-338.773 56.32c-2.625 0.574-5.639 0.903-8.731 0.903-11.745 0-22.382-4.746-30.097-12.425l-452.265-452.691c-7.668-7.712-12.407-18.343-12.407-30.080s4.74-22.368 12.409-30.082l422.398-422.398c7.712-7.668 18.343-12.407 30.080-12.407s22.368 4.74 30.082 12.409l452.691 452.265c7.677 7.714 12.423 18.351 12.423 30.096 0 3.092-0.329 6.106-0.953 9.011l0.051-0.28-56.32 338.773 74.667 75.093c7.668 7.712 12.407 18.343 12.407 30.080s-4.74 22.368-12.409 30.082l0.002-0.002zM887.893 461.227l-406.187-406.187-361.813 362.667 406.187 406.187 259.84-42.667-75.093-74.24c-11.582 4.695-25.016 7.42-39.087 7.42-58.91 0-106.667-47.756-106.667-106.667s47.756-106.667 106.667-106.667c58.91 0 106.667 47.756 106.667 106.667 0 14.071-2.724 27.505-7.675 39.804l0.255-0.717 75.093 75.093zM686.080 593.92c-3.377-2.676-7.7-4.294-12.4-4.294-11.075 0-20.053 8.978-20.053 20.053 0 4.7 1.617 9.023 4.325 12.442l-0.032-0.042c3.705 4.679 9.385 7.653 15.76 7.653 11.075 0 20.053-8.978 20.053-20.053 0-6.375-2.975-12.055-7.611-15.728l-0.042-0.032z" />
<glyph unicode="&#xe93b;" glyph-name="ribbon" d="M973.227 170.667l-151.040 263.253c26.867 49.129 42.668 107.626 42.668 169.813 0 0.3 0 0.6-0.001 0.901v-0.047c0.002 0.405 0.003 0.885 0.003 1.365 0 97.559-39.449 185.903-103.267 249.953l0.011-0.011c-63.471 64.288-151.593 104.107-249.016 104.107-0.205 0-0.41 0-0.616-0.001h0.032c-195.267-0.727-353.281-159.189-353.281-354.558 0-0.301 0-0.602 0.001-0.902v0.047c-0.001-0.254-0.001-0.554-0.001-0.854 0-62.188 15.801-120.685 43.607-171.696l-0.939 1.883-150.613-263.253c-3.013-5.699-4.782-12.456-4.782-19.627s1.769-13.928 4.894-19.86l-0.112 0.233c6.78-12.038 18.925-20.363 33.105-21.746l0.175-0.014 170.667-12.373 96.427-143.36c7.831-10.905 20.476-17.925 34.761-17.925 0.23 0 0.459 0.002 0.687 0.005h-0.035c14.473 0.386 26.974 8.464 33.604 20.28l0.103 0.2 91.733 159.573 91.307-159.573c7.619-12.363 21.084-20.481 36.445-20.481 0.087 0 0.175 0 0.262 0.001h-0.013c13.885 0.356 26.078 7.291 33.62 17.792l0.087 0.128 94.293 143.36 170.667 12.373c14.281 1.302 26.408 9.467 33.17 21.129l0.11 0.205c3.713 5.966 5.915 13.208 5.915 20.964 0 6.846-1.715 13.292-4.74 18.931l0.105-0.214zM240.213 604.587c1.209 148.948 122.234 269.226 271.352 269.226 149.868 0 271.36-121.492 271.36-271.36 0-149.715-121.244-271.112-270.901-271.36h-0.024c-150.259 0.727-271.787 122.703-271.787 273.064 0 0.151 0 0.302 0 0.453v-0.023zM261.973 353.28c59.888-60.407 141.502-99.19 232.141-103.648l0.819-0.032-110.933-195.84-72.96 105.813c-7.028 9.905-17.978 16.629-30.54 17.905l-0.18 0.015-128 8.96 103.68 176.213zM594.347 258.56c66.095 16.391 122.923 49.539 167.653 94.692l0.027 0.028 5.973 9.387 100.267-174.933-128-9.387c-12.873-0.841-23.983-7.703-30.628-17.771l-0.092-0.149-69.547-106.667-81.067 143.787zM677.973 661.333c-5.419 5.71-12.609 9.691-20.688 11.063l-0.219 0.031-77.227 11.093-34.987 72.107c-5.458 12.648-17.822 21.339-32.215 21.339-0.224 0-0.448-0.002-0.672-0.006h0.033c-14.063-0.155-26.167-8.385-31.907-20.266l-0.093-0.214-34.987-72.107-76.8-11.093c-18.206-2.804-31.983-18.359-31.983-37.132 0-1.953 0.149-3.871 0.437-5.744l-0.026 0.209c1.341-8.376 5.162-15.687 10.675-21.342l-0.008 0.008 55.467-55.040-13.227-78.507c-0.297-1.775-0.467-3.82-0.467-5.905 0-18.032 12.711-33.094 29.661-36.717l0.246-0.044h7.68c0.279-0.008 0.608-0.012 0.938-0.012 6.221 0 12.071 1.585 17.17 4.373l-0.187-0.094 67.413 36.267 69.12-37.12c4.731-2.688 10.393-4.273 16.425-4.273 0.226 0 0.451 0.002 0.675 0.007l-0.034-0.001c1.601-0.199 3.454-0.313 5.333-0.313s3.732 0.114 5.552 0.334l-0.219-0.022c9.529 3.085 17.196 9.642 21.663 18.143l0.097 0.203c2.607 4.846 4.139 10.604 4.139 16.719 0 2.54-0.264 5.017-0.766 7.408l0.041-0.233-12.8 78.507 56.32 57.173c6.375 6.715 10.296 15.814 10.296 25.829 0 9.795-3.75 18.713-9.893 25.398l0.025-0.027zM549.973 536.32l-20.48 11.093c-4.906 2.835-10.791 4.508-17.067 4.508s-12.161-1.673-17.234-4.597l-20.739-11.004 3.84 23.893c0.521 2.358 0.819 5.065 0.819 7.843 0 9.8-3.712 18.733-9.808 25.47l0.029-0.033-17.067 17.067 23.467 3.413c12.050 2.216 21.949 9.866 27.207 20.263l0.1 0.217 10.24 21.333 10.24-21.333c5.327-10.802 15.456-18.534 27.522-20.452l0.211-0.028 23.040-3.413-17.067-17.067c-6.675-6.646-10.806-15.843-10.806-26.005 0-2.269 0.206-4.491 0.6-6.646l-0.034 0.225z" />
<glyph unicode="&#xe93c;" glyph-name="users" d="M618.667 874.667c-39.428-0.13-76.239-11.222-107.578-30.384l0.911 0.518c-30.428 18.645-67.239 29.736-106.631 29.867h-0.036c-117.821 0-213.333-95.513-213.333-213.333s95.513-213.333 213.333-213.333v0c39.428 0.13 76.239 11.222 107.578 30.384l-0.911-0.518c30.428-18.645 67.239-29.736 106.631-29.867h0.036c117.821 0 213.333 95.513 213.333 213.333s-95.513 213.333-213.333 213.333v0zM443.733 539.733c-11.436-3.894-24.616-6.223-38.315-6.399l-0.085-0.001c-70.692 0-128 57.308-128 128s57.308 128 128 128v0c13.784-0.177 26.964-2.506 39.303-6.664l-0.903 0.264c51.553-17.318 88.032-65.199 88.032-121.6s-36.479-104.282-87.13-121.336l-0.902-0.264zM618.667 533.333c-13.784 0.177-26.964 2.506-39.303 6.664l0.903-0.264c23.81 33.941 38.049 76.108 38.049 121.6s-14.239 87.659-38.504 122.286l0.455-0.686c11.436 3.894 24.616 6.223 38.315 6.399l0.085 0.001c70.692 0 128-57.308 128-128s-57.308-128-128-128v0zM746.667 362.667h-469.333c-141.385 0-256-114.615-256-256v0-42.667c0-23.564 19.103-42.667 42.667-42.667s42.667 19.103 42.667 42.667v0 42.667c0 94.257 76.41 170.667 170.667 170.667v0h256c94.257 0 170.667-76.41 170.667-170.667v0-42.667c0-23.564 19.103-42.667 42.667-42.667s42.667 19.103 42.667 42.667v0 42.667c0.008 0.73 0.012 1.594 0.012 2.458 0 64.695-24.282 123.72-64.229 168.456l0.217-0.247h23.040c94.257 0 170.667-76.41 170.667-170.667v0-42.667c0-23.564 19.103-42.667 42.667-42.667s42.667 19.103 42.667 42.667v0 42.667c0 0.002 0 0.004 0 0.006 0 141.385-114.615 256-256 256-0.6 0-1.199-0.002-1.798-0.006h0.092z" />
<glyph unicode="&#xe93d;" glyph-name="user-remove" d="M411.733 448c117.821 0 213.333 95.513 213.333 213.333s-95.513 213.333-213.333 213.333c-117.821 0-213.333-95.513-213.333-213.333v0c0-117.821 95.513-213.333 213.333-213.333v0zM411.733 789.333c70.692 0 128-57.308 128-128s-57.308-128-128-128c-70.692 0-128 57.308-128 128v0c0 70.692 57.308 128 128 128v0zM539.733 362.667h-256c-141.385 0-256-114.615-256-256v0-42.667c0-23.564 19.103-42.667 42.667-42.667v0 0c23.564 0 42.667 19.103 42.667 42.667v0 42.667c0 94.257 76.41 170.667 170.667 170.667v0h256c94.257 0 170.667-76.41 170.667-170.667v0-42.667c0-23.564 19.103-42.667 42.667-42.667v0 0c23.564 0 42.667 19.103 42.667 42.667v0 42.667c0 141.385-114.615 256-256 256v0zM890.88 599.467l-48.213-48.64-48.213 48.213c-7.872 9.153-19.467 14.914-32.407 14.914-23.564 0-42.667-19.103-42.667-42.667 0-12.94 5.761-24.535 14.858-32.36l0.056-0.047 48.213-48.213-48.64-48.213c-7.753-7.753-12.548-18.463-12.548-30.293 0-23.661 19.181-42.841 42.841-42.841 11.83 0 22.541 4.795 30.293 12.548v0l48.213 48.64 48.213-48.64c7.753-7.753 18.463-12.548 30.293-12.548 23.661 0 42.841 19.181 42.841 42.841 0 11.83-4.795 22.541-12.548 30.293v0l-48.64 48.213 48.213 48.213c7.789 7.736 12.611 18.452 12.611 30.293 0 23.577-19.113 42.691-42.691 42.691-11.736 0-22.365-4.735-30.082-12.4l0.002 0.002z" />
<glyph unicode="&#xe93e;" glyph-name="new-tab" d="M938.667 590.933v241.067c0 23.564-19.103 42.667-42.667 42.667v0h-241.067c-23.564 0-42.667-19.103-42.667-42.667s19.103-42.667 42.667-42.667v0h137.387l-331.52-331.947c-7.795-7.733-12.621-18.45-12.621-30.293s4.826-22.56 12.618-30.291l0.003-0.003c7.712-7.668 18.343-12.407 30.080-12.407s22.368 4.74 30.082 12.409l-0.002-0.002 332.373 331.52v-137.387c0.051-11.868 4.939-22.584 12.793-30.287l0.007-0.007c7.709-7.861 18.426-12.749 30.284-12.8h0.010c23.381 0.24 42.242 19.25 42.242 42.665 0 0.151-0.001 0.301-0.002 0.452v-0.023zM810.667 405.333c-23.564 0-42.667-19.103-42.667-42.667v0-213.333c0-23.564-19.103-42.667-42.667-42.667v0h-512c-23.564 0-42.667 19.103-42.667 42.667v0 512c0 23.564 19.103 42.667 42.667 42.667v0h213.333c23.564 0 42.667 19.103 42.667 42.667s-19.103 42.667-42.667 42.667v0h-213.333c-70.692 0-128-57.308-128-128v0-512c0-70.692 57.308-128 128-128v0h512c70.692 0 128 57.308 128 128v0 213.333c0 23.564-19.103 42.667-42.667 42.667v0z" />
<glyph unicode="&#xe93f;" glyph-name="facebook" d="M571.733 64v384h106.667l12.8 132.267h-119.467v68.267c0 34.133 4.267 51.2 51.2 51.2h68.267v132.267h-106.667c-128 0-170.667-64-170.667-170.667v-81.067h-81.067v-132.267h81.067v-384z" />
<glyph unicode="&#xe940;" glyph-name="face-id" d="M344.32 651.52c-0.255 0.005-0.555 0.008-0.855 0.008-24.742 0-44.8-20.058-44.8-44.8 0-0.153 0.001-0.306 0.002-0.458v0.023-72.96c0-24.978 20.249-45.227 45.227-45.227s45.227 20.249 45.227 45.227v0 72.96c0 0.001 0 0.001 0 0.002 0 24.828-20.006 44.983-44.777 45.224h-0.023zM679.68 488.533c0.127-0.001 0.278-0.002 0.429-0.002 24.829 0 44.984 20.007 45.224 44.779v72.983c-2.322 23.245-21.779 41.245-45.44 41.245s-43.118-18-45.425-41.054l-0.015-0.191v-72.96c0.241-24.794 20.397-44.8 45.225-44.8 0.001 0 0.001 0 0.002 0v0zM693.76 339.2c-8.319 7.9-19.592 12.76-32 12.76s-23.681-4.859-32.020-12.779l0.020 0.019c-30.075-30.274-71.729-49.013-117.76-49.013s-87.685 18.739-117.751 49.004l-0.009 0.009c-8.206 8.153-19.515 13.193-32 13.193-25.077 0-45.406-20.329-45.406-45.406 0-12.592 5.125-23.986 13.404-32.211l0.002-0.002c46.4-46.771 110.699-75.724 181.76-75.724s135.36 28.954 181.743 75.708l0.017 0.017c8.12 8.3 13.131 19.672 13.131 32.213s-5.010 23.913-13.139 32.222l0.008-0.008zM484.267 357.547c1.177-0.054 2.556-0.085 3.943-0.085 50.663 0 91.733 41.070 91.733 91.733 0 1.531-0.037 3.052-0.112 4.564l0.008-0.213v152.747c0 24.978-20.249 45.227-45.227 45.227s-45.227-20.249-45.227-45.227v0-152.747c0.051-0.702 0.081-1.521 0.081-2.347s-0.029-1.645-0.087-2.456l0.006 0.109h-4.693c-1.322 0.136-2.856 0.213-4.408 0.213-25.214 0-45.653-20.44-45.653-45.653s20.44-45.653 45.653-45.653c1.552 0 3.087 0.077 4.599 0.229l-0.191-0.015zM87.893 529.493c0.002 0 0.005 0 0.008 0 25.214 0 45.653 20.44 45.653 45.653 0 0.3-0.003 0.599-0.009 0.898l0.001-0.045v128c0.947 67.245 55.209 121.506 122.364 122.452l0.090 0.001h85.333c23.245 2.322 41.245 21.779 41.245 45.44s-18 43.118-41.054 45.425l-0.191 0.015h-85.333c-117.821 0-213.333-95.513-213.333-213.333v0-128c-0.005-0.255-0.008-0.555-0.008-0.855 0-25.066 20.202-45.415 45.212-45.651h0.022zM341.333 69.547h-85.333c-67.245 0.947-121.506 55.209-122.452 122.364l-0.001 0.090v128c0.136 1.322 0.213 2.856 0.213 4.408 0 25.214-20.44 45.653-45.653 45.653s-45.653-20.44-45.653-45.653c0-1.552 0.077-3.087 0.229-4.599l-0.015 0.191v-128c0-117.821 95.513-213.333 213.333-213.333v0h85.333c23.245 2.322 41.245 21.779 41.245 45.44s-18 43.118-41.054 45.425l-0.191 0.015zM768 917.333h-85.333c-23.245-2.322-41.245-21.779-41.245-45.44s18-43.118 41.054-45.425l0.191-0.015h85.333c67.245-0.947 121.506-55.209 122.452-122.364l0.001-0.090v-128c-0.136-1.322-0.213-2.856-0.213-4.408 0-25.214 20.44-45.653 45.653-45.653s45.653 20.44 45.653 45.653c0 1.552-0.077 3.087-0.229 4.599l0.015-0.191v128c0 117.821-95.513 213.333-213.333 213.333v0zM936.107 366.507c-0.002 0-0.005 0-0.008 0-25.214 0-45.653-20.44-45.653-45.653 0-0.3 0.003-0.599 0.009-0.898l-0.001 0.045v-128c-0.947-67.245-55.209-121.506-122.364-122.452l-0.090-0.001h-85.333c-23.245-2.322-41.245-21.779-41.245-45.44s18-43.118 41.054-45.425l0.191-0.015h85.333c117.821 0 213.333 95.513 213.333 213.333v0 128c0.005 0.255 0.008 0.555 0.008 0.855 0 25.066-20.202 45.415-45.212 45.651h-0.022z" />
<glyph unicode="&#xe941;" glyph-name="q-a" d="M414.293 544.427c2.789 6.23 4.753 13.455 5.522 21.034l0.025 0.299c1.154 12.764 1.812 27.609 1.812 42.608 0 3.621-0.038 7.233-0.115 10.836l0.009-0.537c0.121 3.788 0.189 8.242 0.189 12.713 0 15.66-0.844 31.123-2.488 46.346l0.165-1.886c-1.124 9.171-4.313 17.423-9.087 24.52l0.127-0.2c-7.072 13.064-16.872 23.819-28.698 31.8l-0.315 0.2c-14.004 9.107-31.135 14.522-49.532 14.522-0.587 0-1.172-0.006-1.756-0.016l0.088 0.001c-0.505 0.010-1.1 0.016-1.697 0.016-18.104 0-34.941-5.421-48.978-14.728l0.329 0.205c-12.301-8.149-22.34-18.734-29.626-31.131l-0.241-0.443c-4.161-7.132-7.159-15.474-8.486-24.363l-0.047-0.384c-1.718-13.992-2.698-30.189-2.698-46.615 0-3.713 0.050-7.413 0.15-11.102l-0.012 0.544c-0.085-3.086-0.134-6.719-0.134-10.363 0-16.345 0.979-32.461 2.881-48.294l-0.187 1.91c0.838-5.367 2.027-10.111 3.592-14.68l-0.179 0.6c0-3.413 2.987-6.827 5.12-10.667 7.225-13.051 17.332-23.705 29.512-31.365l0.354-0.208c13.888-9.359 30.996-14.938 49.407-14.938 0.33 0 0.661 0.002 0.99 0.005h-0.050c0.798-0.027 1.735-0.042 2.676-0.042 20.784 0 39.832 7.43 54.633 19.779l-0.136-0.111 26.88-21.76c0.506-0.203 1.093-0.321 1.707-0.321s1.201 0.118 1.738 0.332l-0.032-0.011c1.585 0.104 2.962 0.915 3.83 2.118l0.010 0.015 21.76 24.747c0.294 0.626 0.466 1.36 0.466 2.133s-0.172 1.507-0.479 2.165l0.013-0.031c0.155 0.576 0.244 1.238 0.244 1.92s-0.089 1.344-0.256 1.974l0.012-0.054zM372.48 576l-20.907 16.64c-0.995 0.956-2.349 1.544-3.84 1.544s-2.845-0.589-3.842-1.546l0.002 0.002-21.333-24.747c-0.323-0.551-0.514-1.213-0.514-1.92s0.191-1.369 0.524-1.938l-0.010 0.018c-0.217-0.571-0.343-1.231-0.343-1.92s0.126-1.349 0.356-1.958l-0.013 0.038 25.173-20.053c-5.479-2.745-11.939-4.352-18.773-4.352s-13.294 1.607-19.021 4.464l0.247-0.112c-4.862 3.55-8.76 8.131-11.423 13.439l-0.097 0.214c-4.13 4.915-7.012 11.011-8.079 17.711l-0.027 0.209c-2.625 14.061-4.173 30.284-4.266 46.852v0.082c-0.081 2.523-0.127 5.489-0.127 8.465 0 13.719 0.977 27.209 2.864 40.406l-0.177-1.512c1.53 7.075 4.995 13.178 9.809 17.915l0.005 0.005c3.501 4.496 7.927 8.102 13.009 10.571l0.218 0.096c5.753 3.083 12.585 4.893 19.84 4.893s14.087-1.811 20.069-5.005l-0.229 0.112c5.394-2.571 9.85-6.343 13.157-10.99l0.070-0.104c4.276-4.741 7.299-10.691 8.501-17.277l0.033-0.217c0.802-9.048 1.259-19.574 1.259-30.207 0-6.033-0.147-12.032-0.438-17.993l0.033 0.84c0.071-2.523 0.111-5.491 0.111-8.47 0-12.046-0.66-23.938-1.947-35.642l0.129 1.444zM896 682.667h-213.333v85.333c0 70.692-57.308 128-128 128v0h-426.667c-70.692 0-128-57.308-128-128v0-298.667c0-70.692 57.308-128 128-128v0-85.333c0.045-16.18 9.088-30.237 22.388-37.435l0.226-0.112c5.798-3.19 12.701-5.082 20.042-5.12h0.012c8.761 0.071 16.878 2.771 23.616 7.349l-0.149-0.095 147.2 86.613v-51.2c0-70.692 57.308-128 128-128v0h155.307l205.227-120.747c6.589-4.482 14.706-7.183 23.449-7.253h0.018c7.353 0.038 14.255 1.93 20.275 5.231l-0.222-0.111c13.525 7.309 22.569 21.367 22.613 37.541v85.339c70.692 0 128 57.308 128 128v0 298.667c0 70.692-57.308 128-128 128v0zM682.667 463.787l29.867-90.027h-59.307zM374.187 426.667l-160.853-91.307v90.88h-85.333c-23.564 0-42.667 19.103-42.667 42.667v0 298.667c0 23.564 19.103 42.667 42.667 42.667v0h426.667c23.564 0 42.667-19.103 42.667-42.667v0-298.667c0-23.564-19.103-42.667-42.667-42.667v0zM938.667 256c0-23.564-19.103-42.667-42.667-42.667v0h-85.333v-90.88l-160.853 90.88h-180.48c-23.564 0-42.667 19.103-42.667 42.667v0 85.333h128c15.387 0.218 30.020 3.173 43.523 8.398l-0.856-0.291-22.613-62.72c-0.394-0.743-0.626-1.624-0.626-2.56s0.232-1.817 0.641-2.59l-0.015 0.030c0.626-0.294 1.36-0.466 2.133-0.466s1.507 0.172 2.165 0.479l-0.031-0.013h36.267c2.293 0 4.262 1.392 5.106 3.377l0.014 0.036 19.627 47.787h85.333l17.493-49.92c0.575-1.988 2.379-3.417 4.516-3.417 0.062 0 0.124 0.001 0.186 0.004h36.258c0.626-0.294 1.36-0.466 2.133-0.466s1.507 0.172 2.165 0.479l-0.031-0.013c0.394 0.743 0.626 1.624 0.626 2.56s-0.232 1.817-0.641 2.59l0.015-0.030-87.467 240.64c-0.726 2.198-2.73 3.77-5.112 3.84h-12.808v68.267h213.333c23.564 0 42.667-19.103 42.667-42.667v0z" />
<glyph unicode="&#xe942;" glyph-name="file" d="M810.667 699.733v0l-196.267 196.267h-358.4c-70.692 0-128-57.308-128-128v0-640c0-70.692 57.308-128 128-128v0h512c70.692 0 128 57.308 128 128v0 486.4zM750.933 640h-110.933v110.933zM810.667 128c0.056-0.792 0.087-1.716 0.087-2.647 0-22.15-17.956-40.107-40.107-40.107-0.932 0-1.856 0.032-2.771 0.094l0.124-0.007h-512c-0.792-0.056-1.716-0.087-2.647-0.087-22.15 0-40.107 17.956-40.107 40.107 0 0.932 0.032 1.856 0.094 2.771l-0.007-0.124v640c-0.056 0.792-0.087 1.716-0.087 2.647 0 22.15 17.956 40.107 40.107 40.107 0.932 0 1.856-0.032 2.771-0.094l-0.124 0.007h298.667v-213.333c-0.056-0.792-0.087-1.716-0.087-2.647 0-22.15 17.956-40.107 40.107-40.107 0.932 0 1.856 0.032 2.771 0.094l-0.124-0.007h213.333z" />
<glyph unicode="&#xe943;" glyph-name="filter" d="M896 618.667h-768c-0.792-0.056-1.716-0.087-2.647-0.087-22.15 0-40.107 17.956-40.107 40.107 0 0.932 0.032 1.856 0.094 2.771l-0.007-0.124c-0.056 0.792-0.087 1.716-0.087 2.647 0 22.15 17.956 40.107 40.107 40.107 0.932 0 1.856-0.032 2.771-0.094l-0.124 0.007h768c0.792 0.056 1.716 0.087 2.647 0.087 22.15 0 40.107-17.956 40.107-40.107 0-0.932-0.032-1.856-0.094-2.771l0.007 0.124c0-23.564-19.103-42.667-42.667-42.667v0zM768 405.333h-512c-23.564 0-42.667 19.103-42.667 42.667s19.103 42.667 42.667 42.667v0h512c0.792 0.056 1.716 0.087 2.647 0.087 22.15 0 40.107-17.956 40.107-40.107 0-0.932-0.032-1.856-0.094-2.771l0.007 0.124c0-23.564-19.103-42.667-42.667-42.667v0zM682.667 192h-341.333c-23.564 0-42.667 19.103-42.667 42.667s19.103 42.667 42.667 42.667v0h341.333c0.792 0.056 1.716 0.087 2.647 0.087 22.15 0 40.107-17.956 40.107-40.107 0-0.932-0.032-1.856-0.094-2.771l0.007 0.124c0-23.564-19.103-42.667-42.667-42.667v0z" />
<glyph unicode="&#xe944;" glyph-name="frames" d="M938.667 443.733l-189.44 399.36c-4.87 10.084-13.29 17.81-23.599 21.663l-0.295 0.097c-4.793 2.024-10.366 3.201-16.213 3.201s-11.42-1.176-16.495-3.305l0.281 0.105-116.053-56.747c-14.547-7.029-24.404-21.67-24.404-38.613 0-23.61 19.14-42.75 42.75-42.75 6.667 0 12.978 1.526 18.602 4.248l-0.255-0.111 77.227 36.693 128-271.787c-9.159 1.28-19.809 2.053-30.624 2.133l-0.096 0.001c-114.37-0.179-209.543-82.147-230.168-190.535l-0.232-1.465h-92.587c-20.857 109.853-116.030 191.821-230.38 192h-0.020c-10.911-0.081-21.561-0.853-32.005-2.277l1.285 0.143 128 271.787 76.8-36.693c5.369-2.611 11.68-4.137 18.347-4.137 23.61 0 42.75 19.14 42.75 42.75 0 16.943-9.857 31.584-24.149 38.502l-0.255 0.111-113.92 55.040c-4.793 2.024-10.366 3.201-16.213 3.201s-11.42-1.176-16.495-3.305l0.281 0.105c-10.776-3.857-19.355-11.604-24.209-21.508l-0.111-0.252-189.44-397.653c-52.147-43.244-85.161-107.989-85.333-180.451v-0.029c-0.090-0.641-0.141-1.381-0.141-2.133s0.051-1.493 0.15-2.218l-0.009 0.084v-2.987c3.543-126.604 107.021-227.886 234.154-227.886 114.603 0 209.984 82.301 230.262 191.024l0.225 1.449h93.867c18.594-112.362 115.043-196.998 231.26-196.998 128.724 0 233.197 103.833 234.232 232.313l0.001 0.099v2.987c0.090 0.641 0.141 1.381 0.141 2.133s-0.051 1.493-0.15 2.218l0.009-0.084c-0.172 72.491-33.186 137.236-84.945 180.167l-0.388 0.313zM234.667 113.92c-0.186-0.001-0.406-0.001-0.625-0.001-77.668 0-141.487 59.293-148.662 135.082l-0.046 0.599c0 4.693 0 8.96 0 13.653 0.015 51.904 26.583 97.6 66.859 124.242l0.555 0.345c22.822 15.501 50.982 24.748 81.302 24.748 0.217 0 0.435 0 0.652-0.001h-0.033c82.475 0 149.333-66.859 149.333-149.333s-66.859-149.333-149.333-149.333v0zM938.667 249.6c-7.428-75.955-70.959-134.827-148.239-134.827-82.239 0-148.907 66.668-148.907 148.907s66.668 148.907 148.907 148.907c0.065 0 0.131 0 0.196 0h-0.010c0.184 0.001 0.401 0.001 0.618 0.001 30.32 0 58.479-9.247 81.813-25.075l-0.511 0.327c40.112-27.099 66.136-72.401 66.136-123.783 0-0.283-0.001-0.565-0.002-0.848v0.044c0-4.693 0-8.96 0-13.653z" />
<glyph unicode="&#xe945;" glyph-name="shield" d="M891.307 785.92l-365.227 131.413c-4.255 1.562-9.169 2.465-14.293 2.465s-10.038-0.903-14.59-2.56l0.297 0.094-364.8-131.413c-16.603-6.093-28.234-21.764-28.234-40.152 0-0.885 0.027-1.763 0.080-2.635l-0.006 0.12v-261.547c0-275.2 347.307-479.573 386.987-502.187 5.859-3.224 12.841-5.121 20.267-5.121 0.075 0 0.15 0 0.225 0.001h-0.012c0.063 0 0.138-0.001 0.213-0.001 7.425 0 14.407 1.897 20.488 5.232l-0.222-0.111 4.693 2.987c89.6 53.76 384 247.893 384 498.773v265.387c-0.648 18.407-12.86 33.796-29.565 39.169l-0.302 0.084zM834.56 715.52v-231.68c0-197.547-245.333-366.080-322.56-414.293-70.868 44.497-132.366 93.65-187.751 148.924l0.018-0.018c-89.173 90.453-134.4 180.053-134.4 265.387v231.68l322.133 116.48z" />
<glyph unicode="&#xe946;" glyph-name="globe" d="M512 874.667c-235.641 0-426.667-191.025-426.667-426.667s191.025-426.667 426.667-426.667c235.641 0 426.667 191.025 426.667 426.667v0c0 235.641-191.025 426.667-426.667 426.667v0zM849.067 490.667h-153.6c-9.667 106.825-43.323 204.093-95.506 288.723l1.639-2.856c132.732-35.292 231.67-147.167 247.324-284.334l0.142-1.533zM413.867 405.333h196.267c-14.061-101.159-48.747-192.046-99.736-271.468l1.603 2.668c-50.509 76.446-85.369 167.559-97.809 265.665l-0.324 3.135zM413.867 490.667c14.061 101.159 48.747 192.046 99.736 271.468l-1.603-2.668c51.242-76.225 86.221-167.494 97.856-265.914l0.278-2.886zM422.4 776.533c-49.202-82.097-82.655-179.095-93.604-282.803l-0.262-3.064h-153.6c15.797 138.7 114.735 250.574 245.139 285.339l2.327 0.528zM174.933 405.333h153.6c9.667-106.825 43.323-204.093 95.506-288.723l-1.639 2.856c-132.026 36.472-230.365 147.722-247.3 284.22l-0.167 1.646zM601.6 119.467c49.202 82.097 82.655 179.095 93.604 282.803l0.262 3.064h153.6c-17.102-138.144-115.441-249.395-245.092-285.305l-2.375-0.561z" />
<glyph unicode="&#xe947;" glyph-name="book" d="M853.333 938.667h-640c-47.128 0-85.333-38.205-85.333-85.333v0-661.333c0-82.475 66.859-149.333 149.333-149.333v0h64v-42.667c0-23.564 19.103-42.667 42.667-42.667s42.667 19.103 42.667 42.667v0 42.667h426.667c23.564 0 42.667 19.103 42.667 42.667v0 810.667c0 23.564-19.103 42.667-42.667 42.667v0zM277.333 128c-18.8 0.104-35.665 8.298-47.307 21.274l-0.053 0.060c-10.289 11.197-16.595 26.195-16.595 42.667s6.306 31.47 16.636 42.712l-0.041-0.046c11.695 13.036 28.56 21.229 47.341 21.333h64.019v-128zM810.667 128h-384v128h384zM810.667 341.333h-533.333c-23.313-0.099-45.317-5.601-64.856-15.318l0.856 0.385v526.933h597.333z" />
</font>
</defs>
</svg>
